<svg width="25" height="17" viewBox="0 0 25 17" fill="none" xmlns="http://www.w3.org/2000/svg">
<g clip-path="url(#clip0_7_397)">
<path opacity="0.4" fill-rule="evenodd" clip-rule="evenodd" d="M0.393028 7.54994C0.268093 7.67459 0.168973 7.82267 0.101343 7.98568C0.0337132 8.1487 -0.00109863 8.32345 -0.00109863 8.49994C-0.00109863 8.67643 0.0337132 8.85118 0.101343 9.01419C0.168973 9.17721 0.268093 9.32528 0.393028 9.44994L7.55003 16.6069C7.67478 16.7317 7.82289 16.8307 7.98589 16.8982C8.14889 16.9657 8.3236 17.0004 8.50003 17.0004C8.67646 17.0004 8.85116 16.9657 9.01416 16.8982C9.17717 16.8307 9.32527 16.7317 9.45003 16.6069C9.57478 16.4822 9.67375 16.3341 9.74126 16.1711C9.80878 16.0081 9.84353 15.8334 9.84353 15.6569C9.84353 15.4805 9.80878 15.3058 9.74126 15.1428C9.67375 14.9798 9.57478 14.8317 9.45003 14.7069L4.58203 9.84194H22.816C23.1719 9.84194 23.5133 9.70055 23.765 9.44888C24.0166 9.1972 24.158 8.85586 24.158 8.49994C24.158 8.14402 24.0166 7.80268 23.765 7.551C23.5133 7.29933 23.1719 7.15794 22.816 7.15794H4.58203L9.45003 2.29094C9.70198 2.03898 9.84353 1.69726 9.84353 1.34094C9.84353 0.98462 9.70198 0.642895 9.45003 0.390939C9.19807 0.138984 8.85635 -0.00256347 8.50003 -0.00256348C8.14371 -0.00256348 7.80198 0.138984 7.55003 0.390939L0.393028 7.54994Z" fill="#05A1AB"/>
<path d="M0.393028 9.44989C0.268093 9.32524 0.168973 9.17716 0.101343 9.01415C0.0337132 8.85113 -0.00109863 8.67638 -0.00109863 8.49989C-0.00109863 8.32341 0.0337132 8.14865 0.101343 7.98564C0.168973 7.82262 0.268093 7.67455 0.393028 7.54989L7.55003 0.392893C7.67478 0.268137 7.82289 0.169175 7.98589 0.101658C8.14889 0.0341405 8.3236 -0.00061035 8.50003 -0.000610352C8.67646 -0.000610353 8.85116 0.0341405 9.01416 0.101658C9.17717 0.169175 9.32527 0.268137 9.45003 0.392893C9.57478 0.517649 9.67375 0.665756 9.74126 0.828757C9.80878 0.991758 9.84353 1.16646 9.84353 1.34289C9.84353 1.51932 9.80878 1.69403 9.74126 1.85703C9.67375 2.02003 9.57478 2.16814 9.45003 2.29289L3.18503 8.49289L9.45003 14.7089C9.70198 14.9608 9.84353 15.3026 9.84353 15.6589C9.84353 16.0152 9.70198 16.3569 9.45003 16.6089C9.19807 16.8608 8.85635 17.0024 8.50003 17.0024C8.14371 17.0024 7.80198 16.8608 7.55003 16.6089L0.393028 9.44989Z" fill="#05A1AB"/>
</g>
<defs>
<clipPath id="clip0_7_397">
<rect width="24.158" height="17" fill="white"/>
</clipPath>
</defs>
</svg>
