<svg width="24" height="24" viewBox="0 0 24 24" fill="none" xmlns="http://www.w3.org/2000/svg">
<g clip-path="url(#clip0_86_1007)">
<path d="M17.7275 3H6.27254C6.07633 3.00301 5.88765 3.07599 5.7405 3.20581C6.3238 3.41093 6.83706 3.77711 7.22081 4.26192C7.60457 4.74672 7.84311 5.33032 7.90881 5.94512C7.92132 6.05384 7.92132 6.16363 7.90881 6.27235V20.185C7.90916 20.3413 7.9543 20.4941 8.03889 20.6255C8.12349 20.7569 8.24398 20.8613 8.38609 20.9262C8.52819 20.9912 8.68596 21.0141 8.84067 20.9922C8.99539 20.9702 9.14056 20.9044 9.25899 20.8024L11.5909 18.8061L13.9229 20.8024C14.0716 20.9283 14.2601 20.9974 14.4549 20.9974C14.6498 20.9974 14.8383 20.9283 14.987 20.8024L17.3189 18.8061L19.6508 20.8024C19.7993 20.9289 19.9879 20.9985 20.1829 20.999C20.3013 20.998 20.4183 20.9728 20.5266 20.9249C20.6681 20.8587 20.7879 20.7536 20.8719 20.6218C20.9559 20.4901 21.0007 20.3371 21.001 20.1809V6.27235C21.001 5.84254 20.9163 5.41693 20.7518 5.01984C20.5873 4.62275 20.3462 4.26197 20.0422 3.95809C19.7382 3.65421 19.3773 3.41319 18.9801 3.2488C18.583 3.08441 18.1573 2.99986 17.7275 3ZM16.9042 14.4543H11.9995C11.7983 14.4317 11.6125 14.3358 11.4776 14.1848C11.3427 14.0339 11.2681 13.8386 11.2681 13.6362C11.2681 13.4338 11.3427 13.2384 11.4776 13.0875C11.6125 12.9366 11.7983 12.8407 11.9995 12.8181H16.9083C17.0234 12.8052 17.14 12.8167 17.2504 12.8519C17.3608 12.8871 17.4625 12.9452 17.5489 13.0224C17.6353 13.0997 17.7044 13.1942 17.7517 13.3C17.799 13.4058 17.8235 13.5203 17.8235 13.6362C17.8235 13.752 17.799 13.8666 17.7517 13.9724C17.7044 14.0781 17.6353 14.1727 17.5489 14.2499C17.4625 14.3271 17.3608 14.3853 17.2504 14.4205C17.14 14.4557 17.0234 14.4672 16.9083 14.4543H16.9042ZM16.9042 11.1819H11.9995C11.7983 11.1593 11.6125 11.0634 11.4776 10.9125C11.3427 10.7616 11.2681 10.5662 11.2681 10.3638C11.2681 10.1614 11.3427 9.96607 11.4776 9.81516C11.6125 9.66425 11.7983 9.56833 11.9995 9.54574H16.9083C17.0234 9.5328 17.14 9.54432 17.2504 9.57953C17.3608 9.61474 17.4625 9.67286 17.5489 9.75008C17.6353 9.8273 17.7044 9.92188 17.7517 10.0276C17.799 10.1334 17.8235 10.248 17.8235 10.3638C17.8235 10.4797 17.799 10.5942 17.7517 10.7C17.7044 10.8058 17.6353 10.9003 17.5489 10.9776C17.4625 11.0548 17.3608 11.1129 17.2504 11.1481C17.14 11.1833 17.0234 11.1948 16.9083 11.1819H16.9042ZM16.9042 7.90956H11.9995C11.7983 7.88696 11.6125 7.79105 11.4776 7.64013C11.3427 7.48922 11.2681 7.29389 11.2681 7.09147C11.2681 6.88905 11.3427 6.69372 11.4776 6.54281C11.6125 6.3919 11.7983 6.29598 11.9995 6.27338H16.9083C17.0234 6.26045 17.14 6.27196 17.2504 6.30718C17.3608 6.34239 17.4625 6.40051 17.5489 6.47773C17.6353 6.55494 17.7044 6.64953 17.7517 6.75529C17.799 6.86105 17.8235 6.97561 17.8235 7.09147C17.8235 7.20733 17.799 7.32189 17.7517 7.42765C17.7044 7.53341 17.6353 7.628 17.5489 7.70522C17.4625 7.78243 17.3608 7.84055 17.2504 7.87576C17.14 7.91098 17.0234 7.92249 16.9083 7.90956H16.9042ZM6.27254 6.27235V12.8171H3.82328C3.60493 12.8171 3.39553 12.7303 3.24113 12.5759C3.08674 12.4216 3 12.2122 3 11.9938V5.94512C3.06332 5.52772 3.28456 5.15058 3.61802 4.89164C3.95148 4.6327 4.37167 4.51174 4.79178 4.55374C5.21188 4.59575 5.5998 4.79752 5.87538 5.11736C6.15095 5.43721 6.29313 5.85068 6.27254 6.27235Z" fill="white"/>
</g>
<defs>
<clipPath id="clip0_86_1007">
<rect width="18" height="18" fill="white" transform="translate(3 3)"/>
</clipPath>
</defs>
</svg>
