<svg width="24" height="24" viewBox="0 0 24 24" fill="none" xmlns="http://www.w3.org/2000/svg">
<path d="M19.3846 0H4.61538C2.06638 0 0 2.06638 0 4.61538V19.3846C0 21.9336 2.06638 24 4.61538 24H19.3846C21.9336 24 24 21.9336 24 19.3846V4.61538C24 2.06638 21.9336 0 19.3846 0Z" fill="white"/>
<g clip-path="url(#clip0_86_215)">
<path d="M15.9442 5.53857H7.1327C6.98176 5.54089 6.83662 5.59703 6.72343 5.69689C7.17213 5.85468 7.56694 6.13635 7.86214 6.50928C8.15733 6.88221 8.34082 7.33113 8.39136 7.80405C8.40099 7.88768 8.40099 7.97214 8.39136 8.05577V18.7578C8.39163 18.878 8.42636 18.9956 8.49143 19.0967C8.5565 19.1977 8.64919 19.278 8.7585 19.328C8.86781 19.378 8.98917 19.3956 9.10818 19.3787C9.22719 19.3618 9.33887 19.3112 9.42996 19.2327L11.2238 17.6971L13.0176 19.2327C13.1319 19.3296 13.277 19.3827 13.4268 19.3827C13.5767 19.3827 13.7217 19.3296 13.8361 19.2327L15.6299 17.6971L17.4237 19.2327C17.5379 19.33 17.6829 19.3836 17.833 19.3839C17.9241 19.3832 18.014 19.3638 18.0974 19.3269C18.2062 19.276 18.2984 19.1952 18.363 19.0938C18.4276 18.9925 18.4621 18.8748 18.4623 18.7546V8.05577C18.4623 7.72514 18.3972 7.39775 18.2706 7.0923C18.144 6.78685 17.9586 6.50932 17.7247 6.27556C17.4909 6.04181 17.2133 5.85641 16.9078 5.72996C16.6023 5.6035 16.2748 5.53847 15.9442 5.53857ZM15.3109 14.3495H11.538C11.3833 14.3322 11.2404 14.2584 11.1366 14.1423C11.0328 14.0262 10.9754 13.876 10.9754 13.7202C10.9754 13.5645 11.0328 13.4143 11.1366 13.2982C11.2404 13.1821 11.3833 13.1083 11.538 13.091H15.314C15.4026 13.081 15.4923 13.0899 15.5772 13.1169C15.6621 13.144 15.7404 13.1887 15.8068 13.2481C15.8733 13.3075 15.9264 13.3803 15.9628 13.4616C15.9992 13.543 16.018 13.6311 16.018 13.7202C16.018 13.8094 15.9992 13.8975 15.9628 13.9788C15.9264 14.0602 15.8733 14.133 15.8068 14.1924C15.7404 14.2518 15.6621 14.2965 15.5772 14.3236C15.4923 14.3506 15.4026 14.3595 15.314 14.3495H15.3109ZM15.3109 11.8324H11.538C11.3833 11.815 11.2404 11.7412 11.1366 11.6251C11.0328 11.509 10.9754 11.3588 10.9754 11.2031C10.9754 11.0473 11.0328 10.8971 11.1366 10.781C11.2404 10.6649 11.3833 10.5911 11.538 10.5738H15.314C15.4026 10.5638 15.4923 10.5727 15.5772 10.5998C15.6621 10.6268 15.7404 10.6715 15.8068 10.7309C15.8733 10.7903 15.9264 10.8631 15.9628 10.9445C15.9992 11.0258 16.018 11.1139 16.018 11.2031C16.018 11.2922 15.9992 11.3803 15.9628 11.4617C15.9264 11.543 15.8733 11.6158 15.8068 11.6752C15.7404 11.7346 15.6621 11.7793 15.5772 11.8064C15.4923 11.8334 15.4026 11.8423 15.314 11.8324H15.3109ZM15.3109 9.31516H11.538C11.3833 9.29778 11.2404 9.22399 11.1366 9.10791C11.0328 8.99182 10.9754 8.84157 10.9754 8.68586C10.9754 8.53015 11.0328 8.3799 11.1366 8.26381C11.2404 8.14772 11.3833 8.07394 11.538 8.05656H15.314C15.4026 8.04661 15.4923 8.05547 15.5772 8.08256C15.6621 8.10964 15.7404 8.15435 15.8068 8.21375C15.8733 8.27315 15.9264 8.3459 15.9628 8.42726C15.9992 8.50861 16.018 8.59673 16.018 8.68586C16.018 8.77498 15.9992 8.86311 15.9628 8.94446C15.9264 9.02582 15.8733 9.09857 15.8068 9.15797C15.7404 9.21737 15.6621 9.26207 15.5772 9.28916C15.4923 9.31625 15.4026 9.32511 15.314 9.31516H15.3109ZM7.1327 8.05577V13.0902H5.24865C5.08069 13.0902 4.91961 13.0234 4.80084 12.9047C4.68208 12.7859 4.61536 12.6249 4.61536 12.4569V7.80405C4.66406 7.48297 4.83425 7.19287 5.09076 6.99368C5.34726 6.7945 5.67049 6.70145 5.99365 6.73376C6.31681 6.76608 6.6152 6.92128 6.82719 7.16732C7.03917 7.41335 7.14854 7.7314 7.1327 8.05577Z" fill="#05A1AB"/>
</g>
<defs>
<clipPath id="clip0_86_215">
<rect width="13.8462" height="13.8462" fill="white" transform="translate(4.61536 5.53857)"/>
</clipPath>
</defs>
</svg>
