<svg width="30" height="30" viewBox="0 0 30 30" fill="none" xmlns="http://www.w3.org/2000/svg">
<path d="M14.9987 0.333496C12.0979 0.333496 9.26226 1.19368 6.85034 2.80527C4.43842 4.41687 2.55856 6.70749 1.44847 9.38747C0.338386 12.0675 0.0479371 15.0164 0.613854 17.8615C1.17977 20.7065 2.57664 23.3199 4.62781 25.3711C6.67898 27.4222 9.29233 28.8191 12.1374 29.385C14.9824 29.9509 17.9314 29.6605 20.6114 28.5504C23.2914 27.4403 25.582 25.5604 27.1936 23.1485C28.8052 20.7366 29.6654 17.901 29.6654 15.0002C29.6608 11.1117 28.1141 7.38387 25.3645 4.63433C22.615 1.88479 18.8871 0.338083 14.9987 0.333496ZM2.9987 15.0002C2.99764 12.2791 3.92678 9.63934 5.63204 7.51883L22.48 24.3668C20.7167 25.7802 18.5897 26.6663 16.3445 26.9228C14.0993 27.1793 11.8272 26.7958 9.79056 25.8166C7.75389 24.8374 6.03556 23.3023 4.83383 21.3884C3.63209 19.4746 2.99592 17.26 2.9987 15.0002ZM24.3654 22.4815L7.51737 5.6335C9.82034 3.78737 12.7235 2.85595 15.6707 3.01772C18.6178 3.17948 21.4017 4.42304 23.4887 6.51013C25.5758 8.59721 26.8194 11.381 26.9812 14.3282C27.1429 17.2753 26.2115 20.1785 24.3654 22.4815Z" fill="#2B3990"/>
</svg>
