<svg width="24" height="24" viewBox="0 0 24 24" fill="none" xmlns="http://www.w3.org/2000/svg">
<path d="M3.19322 11.8977C4.71635 12.5009 6.28855 12.972 7.89242 13.3057C7.95206 13.3083 8.0113 13.2948 8.06394 13.2667C8.11658 13.2385 8.16068 13.1967 8.19162 13.1457C8.55933 12.5699 9.06319 12.0935 9.65869 11.7587C10.2542 11.4238 10.923 11.2408 11.606 11.2257C12.2906 11.2406 12.9611 11.4235 13.5584 11.7583C14.1557 12.0931 14.6616 12.5695 15.0316 13.1457C15.0615 13.1977 15.1054 13.2403 15.1583 13.2686C15.2112 13.2969 15.271 13.3098 15.3308 13.3057C16.9294 12.9706 18.4975 12.5034 20.0188 11.9089C20.483 11.7259 20.8808 11.4066 21.1598 10.993C21.4389 10.5794 21.5861 10.091 21.582 9.5921V8.5281C21.647 8.07623 21.6058 7.61545 21.4618 7.18226C21.3177 6.74908 21.0747 6.35541 20.7521 6.03245C20.4294 5.70949 20.036 5.46613 19.6029 5.32165C19.1699 5.17718 18.7091 5.13556 18.2572 5.2001H16.8716V3.5393C16.8691 3.02549 16.6638 2.53347 16.3003 2.1703C15.9368 1.80713 15.4446 1.6022 14.9308 1.6001H8.28122C7.76689 1.60052 7.27373 1.80491 6.9099 2.16845C6.54607 2.53198 6.34127 3.02497 6.34042 3.5393V5.2001H4.95482C4.50289 5.13556 4.04215 5.17718 3.6091 5.32165C3.17606 5.46613 2.78262 5.70949 2.45997 6.03245C2.13732 6.35541 1.89434 6.74908 1.75028 7.18226C1.60622 7.61545 1.56505 8.07623 1.63002 8.5281V9.5921C1.62397 10.09 1.77053 10.5779 2.04999 10.9901C2.32945 11.4023 2.7284 11.719 3.19322 11.8977ZM8.00282 3.5393C8.00261 3.50289 8.00962 3.4668 8.02346 3.43312C8.03729 3.39944 8.05767 3.36884 8.08342 3.3431C8.10916 3.31735 8.13976 3.29697 8.17344 3.28314C8.20712 3.2693 8.24321 3.26229 8.27962 3.2625H14.9308C14.9672 3.26229 15.0033 3.2693 15.037 3.28314C15.0707 3.29697 15.1013 3.31735 15.127 3.3431C15.1528 3.36884 15.1731 3.39944 15.187 3.43312C15.2008 3.4668 15.2078 3.50289 15.2076 3.5393V5.2001H8.00762L8.00282 3.5393ZM14.9308 20.7201C14.9308 19.2502 15.5147 17.8404 16.5542 16.801C17.5936 15.7616 19.0033 15.1777 20.4732 15.1777C20.6918 15.1775 20.9102 15.1888 21.1276 15.2113C21.175 15.2205 21.2234 15.2242 21.2716 15.2225C21.3134 15.2232 21.3549 15.2153 21.3935 15.1994C21.4321 15.1834 21.467 15.1597 21.4961 15.1297C21.5252 15.0997 21.5478 15.0641 21.5626 15.025C21.5774 14.9859 21.584 14.9442 21.582 14.9025V12.9169C21.2893 13.1398 20.966 13.3192 20.622 13.4497C19.0151 14.0883 17.3555 14.5851 15.662 14.9345C15.5374 14.9567 15.411 14.968 15.2844 14.9681C14.9573 14.9636 14.6364 14.8782 14.3503 14.7197C14.0642 14.5611 13.8217 14.3342 13.6444 14.0593C13.4275 13.7106 13.1281 13.4206 12.7726 13.2149C12.4171 13.0093 12.0165 12.8943 11.606 12.8801C11.1976 12.895 10.7991 13.0099 10.4454 13.2147C10.0917 13.4194 9.79359 13.7078 9.57722 14.0545C9.36563 14.384 9.06082 14.6432 8.70156 14.799C8.34229 14.9549 7.9448 15.0004 7.55962 14.9297C5.85994 14.5823 4.19427 14.0854 2.58202 13.4449C2.23564 13.3154 1.9117 13.1324 1.62202 12.9025V18.5025C1.55703 18.955 1.59848 19.4164 1.74309 19.8501C1.8877 20.2838 2.13147 20.6777 2.45503 21.0007C2.7786 21.3236 3.17303 21.5666 3.60698 21.7104C4.04093 21.8542 4.50244 21.8948 4.95482 21.8289H14.654C14.6958 21.8309 14.7374 21.8243 14.7765 21.8095C14.8156 21.7947 14.8512 21.7721 14.8812 21.743C14.9112 21.7139 14.9349 21.679 14.9509 21.6404C14.9669 21.6017 14.9747 21.5603 14.974 21.5185C14.9758 21.4649 14.972 21.4113 14.9628 21.3585C14.9413 21.1464 14.9306 20.9333 14.9308 20.7201ZM11.606 16.2865C11.3119 16.2878 11.0294 16.1722 10.8206 15.9651C10.6117 15.7581 10.4937 15.4766 10.4924 15.1825C10.4911 14.8884 10.6067 14.6059 10.8138 14.3971C11.0208 14.1882 11.3023 14.0702 11.5964 14.0689H11.606C11.9001 14.0689 12.1821 14.1857 12.3901 14.3937C12.598 14.6016 12.7148 14.8836 12.7148 15.1777C12.7148 15.4718 12.598 15.7538 12.3901 15.9617C12.1821 16.1697 11.9001 16.2865 11.606 16.2865ZM22.4108 19.6113C22.4108 19.832 22.3232 20.0436 22.1671 20.1996C22.0111 20.3556 21.7995 20.4433 21.5788 20.4433H20.2028V21.8289C20.2077 21.9411 20.1899 22.0532 20.1503 22.1583C20.1108 22.2635 20.0504 22.3595 19.9727 22.4406C19.895 22.5218 19.8017 22.5864 19.6984 22.6305C19.5951 22.6746 19.4839 22.6974 19.3716 22.6974C19.2593 22.6974 19.1481 22.6746 19.0448 22.6305C18.9415 22.5864 18.8482 22.5218 18.7705 22.4406C18.6929 22.3595 18.6324 22.2635 18.5929 22.1583C18.5533 22.0532 18.5355 21.9411 18.5404 21.8289V20.4433H17.1548C16.9407 20.4339 16.7384 20.3422 16.5902 20.1874C16.442 20.0325 16.3593 19.8264 16.3593 19.6121C16.3593 19.3978 16.442 19.1917 16.5902 19.0368C16.7384 18.882 16.9407 18.7903 17.1548 18.7809H18.5404V17.3953C18.5498 17.1812 18.6415 16.9789 18.7963 16.8307C18.9512 16.6825 19.1573 16.5998 19.3716 16.5998C19.586 16.5998 19.792 16.6825 19.9469 16.8307C20.1017 16.9789 20.1934 17.1812 20.2028 17.3953V18.7809H21.5884C21.8091 18.7809 22.0207 18.8686 22.1767 19.0246C22.3328 19.1806 22.4204 19.3922 22.4204 19.6129L22.4108 19.6113Z" fill="#05A1AB"/>
</svg>
