<svg width="18" height="18" viewBox="0 0 18 18" fill="none" xmlns="http://www.w3.org/2000/svg">
<path d="M5.47215 4.23C5.33307 4.23 5.19969 4.17475 5.10134 4.07641C5.003 3.97806 4.94775 3.84468 4.94775 3.7056V0.5244C4.94775 0.38532 5.003 0.251937 5.10134 0.153593C5.19969 0.0552491 5.33307 0 5.47215 0C5.61123 0 5.74461 0.0552491 5.84296 0.153593C5.9413 0.251937 5.99655 0.38532 5.99655 0.5244V3.7056C5.99655 3.84468 5.9413 3.97806 5.84296 4.07641C5.74461 4.17475 5.61123 4.23 5.47215 4.23Z" fill="#43686A"/>
<path d="M12.528 4.23C12.389 4.23 12.2556 4.17475 12.1573 4.07641C12.0589 3.97806 12.0037 3.84468 12.0037 3.7056V0.5244C12.0037 0.38532 12.0589 0.251937 12.1573 0.153593C12.2556 0.0552491 12.389 0 12.528 0C12.6671 0 12.8005 0.0552491 12.8989 0.153593C12.9972 0.251937 13.0525 0.38532 13.0525 0.5244V3.7056C13.0525 3.84468 12.9972 3.97806 12.8989 4.07641C12.8005 4.17475 12.6671 4.23 12.528 4.23Z" fill="#43686A"/>
<path d="M1.19995 7.7627V14.9999C1.20943 15.6014 1.45703 16.1747 1.88846 16.594C2.3199 17.0133 2.89998 17.2444 3.50155 17.2367H14.4972C15.0989 17.2447 15.6793 17.0137 16.111 16.5944C16.5427 16.1751 16.7905 15.6016 16.8 14.9999V7.7627H1.19995Z" fill="#43686A"/>
<path d="M16.7999 6.22805V3.82805C16.7904 3.22651 16.5428 2.65326 16.1114 2.23397C15.6799 1.81468 15.0999 1.58355 14.4983 1.59125H14.1383V3.70685C14.1383 4.1365 13.9676 4.54855 13.6638 4.85236C13.36 5.15617 12.9479 5.32685 12.5183 5.32685C12.0886 5.32685 11.6766 5.15617 11.3728 4.85236C11.069 4.54855 10.8983 4.1365 10.8983 3.70685V1.59125H7.09789V3.70685C7.09789 4.1365 6.92721 4.54855 6.6234 4.85236C6.31959 5.15617 5.90754 5.32685 5.47789 5.32685C5.04824 5.32685 4.63618 5.15617 4.33238 4.85236C4.02857 4.54855 3.85789 4.1365 3.85789 3.70685V1.59125H3.49789C2.89632 1.58355 2.31624 1.81468 1.8848 2.23397C1.45336 2.65326 1.20577 3.22651 1.19629 3.82805V6.22805H16.7963H16.7999Z" fill="#43686A"/>
</svg>
