<svg width="16" height="16" viewBox="0 0 16 16" fill="none" xmlns="http://www.w3.org/2000/svg">
<path d="M7.66331 15.2668C9.16738 15.2668 10.6377 14.8208 11.8882 13.9851C13.1388 13.1495 14.1135 11.9618 14.689 10.5722C15.2646 9.1826 15.4151 7.65354 15.1216 6.17839C14.8281 4.70324 14.1037 3.34825 13.0401 2.28479C11.9765 1.22133 10.6214 0.497154 9.14622 0.203853C7.67103 -0.0894472 6.14199 0.0612978 4.75247 0.637025C3.36295 1.21275 2.17537 2.1876 1.33991 3.43829C0.504445 4.68898 0.0586285 6.15933 0.058838 7.66339C0.0593994 9.67996 0.860796 11.6137 2.28682 13.0396C3.71284 14.4654 5.64675 15.2665 7.66331 15.2668ZM7.12013 3.31798C7.12013 3.17392 7.17736 3.03576 7.27923 2.9339C7.38109 2.83203 7.51925 2.77481 7.66331 2.77481C7.80737 2.77481 7.94553 2.83203 8.04739 2.9339C8.14926 3.03576 8.20649 3.17392 8.20649 3.31798V7.40187L10.7191 9.41363C10.8068 9.48404 10.8704 9.57992 10.9013 9.68806C10.9322 9.79619 10.9287 9.91124 10.8914 10.0173C10.8541 10.1234 10.7848 10.2153 10.6931 10.2803C10.6013 10.3453 10.4916 10.3803 10.3792 10.3803C10.2554 10.3814 10.1351 10.3391 10.0393 10.2607L7.32343 8.08692C7.26012 8.03594 7.209 7.97145 7.17383 7.89818C7.13866 7.8249 7.12031 7.74468 7.12013 7.66339V3.32222V3.31798Z" fill="#43686A"/>
</svg>
