<svg width="24" height="24" viewBox="0 0 24 24" fill="none" xmlns="http://www.w3.org/2000/svg">
<path d="M19.3846 0H4.61538C2.06638 0 0 2.06638 0 4.61538V19.3846C0 21.9336 2.06638 24 4.61538 24H19.3846C21.9336 24 24 21.9336 24 19.3846V4.61538C24 2.06638 21.9336 0 19.3846 0Z" fill="white"/>
<g clip-path="url(#clip0_86_216)">
<path d="M8.73781 7.39573C8.5591 7.39573 8.3877 7.32474 8.26133 7.19837C8.13496 7.072 8.06396 6.9006 8.06396 6.72189V4.3662C8.07042 4.19192 8.14419 4.02693 8.26977 3.90591C8.39535 3.7849 8.56295 3.71729 8.73735 3.71729C8.91175 3.71729 9.07935 3.7849 9.20493 3.90591C9.33051 4.02693 9.40428 4.19192 9.41073 4.3662V6.72281C9.41049 6.90121 9.33951 7.07223 9.21337 7.19837C9.08723 7.32451 8.91621 7.39549 8.73781 7.39573Z" fill="#05A1AB"/>
<path d="M11.9363 7.39573C11.7576 7.39573 11.5862 7.32474 11.4598 7.19837C11.3334 7.072 11.2625 6.9006 11.2625 6.72189V4.3662C11.2689 4.19192 11.3427 4.02693 11.4683 3.90591C11.5938 3.7849 11.7614 3.71729 11.9358 3.71729C12.1102 3.71729 12.2778 3.7849 12.4034 3.90591C12.529 4.02693 12.6028 4.19192 12.6092 4.3662V6.72281C12.609 6.90121 12.538 7.07223 12.4119 7.19837C12.2857 7.32451 12.1147 7.39549 11.9363 7.39573Z" fill="#05A1AB"/>
<path d="M15.1348 7.39573C14.9561 7.39573 14.7847 7.32474 14.6583 7.19837C14.5319 7.072 14.4609 6.9006 14.4609 6.72189V4.3662C14.4674 4.19192 14.5412 4.02693 14.6667 3.90591C14.7923 3.7849 14.9599 3.71729 15.1343 3.71729C15.3087 3.71729 15.4763 3.7849 15.6019 3.90591C15.7275 4.02693 15.8013 4.19192 15.8077 4.3662V6.72281C15.8075 6.90121 15.7365 7.07223 15.6103 7.19837C15.4842 7.32451 15.3132 7.39549 15.1348 7.39573Z" fill="#05A1AB"/>
<path d="M16.4815 5.20703H7.39014C6.8992 5.20752 6.42849 5.40277 6.08134 5.74992C5.73419 6.09707 5.53894 6.56777 5.53845 7.05872V18.0018C5.53894 18.4927 5.73419 18.9635 6.08134 19.3106C6.42849 19.6578 6.8992 19.853 7.39014 19.8535H16.4815C16.9725 19.853 17.4432 19.6578 17.7903 19.3106C18.1375 18.9635 18.3327 18.4927 18.3332 18.0018V7.05872C18.3327 6.56777 18.1375 6.09707 17.7903 5.74992C17.4432 5.40277 16.9725 5.20752 16.4815 5.20703ZM8.90584 9.07934H12.2769C12.3698 9.07163 12.4632 9.08327 12.5514 9.11352C12.6395 9.14377 12.7204 9.19198 12.789 9.25509C12.8576 9.3182 12.9123 9.39484 12.9497 9.48018C12.9872 9.56552 13.0065 9.65769 13.0065 9.75088C13.0065 9.84406 12.9872 9.93624 12.9497 10.0216C12.9123 10.1069 12.8576 10.1836 12.789 10.2467C12.7204 10.3098 12.6395 10.358 12.5514 10.3882C12.4632 10.4185 12.3698 10.4301 12.2769 10.4224H8.90584C8.81531 10.4258 8.72503 10.4108 8.64041 10.3785C8.55579 10.3462 8.47855 10.2971 8.41332 10.2342C8.34809 10.1714 8.2962 10.096 8.26076 10.0127C8.22532 9.92928 8.20705 9.83962 8.20705 9.74903C8.20705 9.65844 8.22532 9.56878 8.26076 9.48541C8.2962 9.40204 8.34809 9.32667 8.41332 9.26381C8.47855 9.20095 8.55579 9.15189 8.64041 9.11956C8.72503 9.08723 8.81531 9.07229 8.90584 9.07565V9.07934ZM15.6443 15.8178H8.90584C8.81531 15.8212 8.72503 15.8062 8.64041 15.7739C8.55579 15.7416 8.47855 15.6925 8.41332 15.6296C8.34809 15.5668 8.2962 15.4914 8.26076 15.408C8.22532 15.3247 8.20705 15.235 8.20705 15.1444C8.20705 15.0538 8.22532 14.9642 8.26076 14.8808C8.2962 14.7974 8.34809 14.7221 8.41332 14.6592C8.47855 14.5963 8.55579 14.5473 8.64041 14.5149C8.72503 14.4826 8.81531 14.4677 8.90584 14.471H15.6443C15.8186 14.4775 15.9836 14.5513 16.1046 14.6768C16.2256 14.8024 16.2932 14.97 16.2932 15.1444C16.2932 15.3188 16.2256 15.4864 16.1046 15.612C15.9836 15.7376 15.8186 15.8113 15.6443 15.8178ZM15.6443 13.1243H8.90584C8.73156 13.1178 8.56657 13.044 8.44556 12.9185C8.32454 12.7929 8.25693 12.6253 8.25693 12.4509C8.25693 12.2765 8.32454 12.1089 8.44556 11.9833C8.56657 11.8577 8.73156 11.7839 8.90584 11.7775H15.6443C15.8186 11.7839 15.9836 11.8577 16.1046 11.9833C16.2256 12.1089 16.2932 12.2765 16.2932 12.4509C16.2932 12.6253 16.2256 12.7929 16.1046 12.9185C15.9836 13.044 15.8186 13.1178 15.6443 13.1243Z" fill="#05A1AB"/>
</g>
<defs>
<clipPath id="clip0_86_216">
<rect width="12.7948" height="16.1622" fill="white" transform="translate(5.53845 3.69238)"/>
</clipPath>
</defs>
</svg>
