<svg width="24" height="24" viewBox="0 0 24 24" fill="none" xmlns="http://www.w3.org/2000/svg">
<g clip-path="url(#clip0_86_1011)">
<path d="M8.00086 6.58269C7.77737 6.58269 7.56304 6.49484 7.40501 6.33846C7.24698 6.18208 7.1582 5.96999 7.1582 5.74883V2.83376C7.16627 2.6181 7.25852 2.41393 7.41556 2.26418C7.5726 2.11443 7.78219 2.03076 8.00028 2.03076C8.21836 2.03076 8.42796 2.11443 8.58499 2.26418C8.74203 2.41393 8.83428 2.6181 8.84235 2.83376V5.74998C8.84205 5.97073 8.75329 6.18236 8.59555 6.33846C8.4378 6.49456 8.22394 6.58239 8.00086 6.58269Z" fill="white"/>
<path d="M12.0006 6.58269C11.7771 6.58269 11.5628 6.49484 11.4048 6.33846C11.2467 6.18208 11.158 5.96999 11.158 5.74883V2.83376C11.166 2.6181 11.2583 2.41393 11.4153 2.26418C11.5724 2.11443 11.7819 2.03076 12 2.03076C12.2181 2.03076 12.4277 2.11443 12.5847 2.26418C12.7418 2.41393 12.834 2.6181 12.8421 2.83376V5.74998C12.8418 5.97073 12.753 6.18236 12.5953 6.33846C12.4376 6.49456 12.2237 6.58239 12.0006 6.58269Z" fill="white"/>
<path d="M16.0002 6.58269C15.7768 6.58269 15.5624 6.49484 15.4044 6.33846C15.2464 6.18208 15.1576 5.96999 15.1576 5.74883V2.83376C15.1657 2.6181 15.2579 2.41393 15.415 2.26418C15.572 2.11443 15.7816 2.03076 15.9997 2.03076C16.2178 2.03076 16.4273 2.11443 16.5844 2.26418C16.7414 2.41393 16.8337 2.6181 16.8417 2.83376V5.74998C16.8414 5.97073 16.7527 6.18236 16.5949 6.33846C16.4372 6.49456 16.2233 6.58239 16.0002 6.58269Z" fill="white"/>
<path d="M17.6844 3.87427H6.31556C5.70162 3.87487 5.11301 4.11648 4.67889 4.54607C4.24477 4.97566 4.00061 5.55813 4 6.16566V19.7073C4.00061 20.3148 4.24477 20.8973 4.67889 21.3269C5.11301 21.7564 5.70162 21.9981 6.31556 21.9987H17.6844C18.2984 21.9981 18.887 21.7564 19.3211 21.3269C19.7552 20.8973 19.9994 20.3148 20 19.7073V6.16566C19.9994 5.55813 19.7552 4.97566 19.3211 4.54607C18.887 4.11648 18.2984 3.87487 17.6844 3.87427ZM8.21095 8.66609H12.4265C12.5427 8.65655 12.6595 8.67096 12.7697 8.70839C12.88 8.74582 12.9811 8.80547 13.0669 8.88357C13.1526 8.96167 13.2211 9.05651 13.2679 9.16211C13.3147 9.26771 13.3389 9.38177 13.3389 9.49709C13.3389 9.6124 13.3147 9.72647 13.2679 9.83207C13.2211 9.93767 13.1526 10.0325 13.0669 10.1106C12.9811 10.1887 12.88 10.2484 12.7697 10.2858C12.6595 10.3232 12.5427 10.3376 12.4265 10.3281H8.21095C8.09775 10.3322 7.98486 10.3138 7.87903 10.2737C7.77321 10.2337 7.67662 10.173 7.59505 10.0952C7.51348 10.0175 7.4486 9.92419 7.40428 9.82102C7.35996 9.71786 7.33712 9.60691 7.33712 9.4948C7.33712 9.3827 7.35996 9.27175 7.40428 9.16859C7.4486 9.06542 7.51348 8.97216 7.59505 8.89437C7.67662 8.81658 7.77321 8.75587 7.87903 8.71586C7.98486 8.67585 8.09775 8.65737 8.21095 8.66152V8.66609ZM16.6375 17.0047H8.21095C8.09775 17.0088 7.98486 16.9903 7.87903 16.9503C7.77321 16.9103 7.67662 16.8496 7.59505 16.7718C7.51348 16.694 7.4486 16.6008 7.40428 16.4976C7.35996 16.3944 7.33712 16.2835 7.33712 16.1714C7.33712 16.0593 7.35996 15.9483 7.40428 15.8452C7.4486 15.742 7.51348 15.6487 7.59505 15.5709C7.67662 15.4931 7.77321 15.4324 7.87903 15.3924C7.98486 15.3524 8.09775 15.3339 8.21095 15.3381H16.6375C16.8554 15.3461 17.0617 15.4374 17.2131 15.5928C17.3644 15.7482 17.4489 15.9556 17.4489 16.1714C17.4489 16.3872 17.3644 16.5946 17.2131 16.75C17.0617 16.9054 16.8554 16.9967 16.6375 17.0047ZM16.6375 13.6715H8.21095C7.99301 13.6635 7.78669 13.5722 7.63536 13.4168C7.48403 13.2614 7.39948 13.054 7.39948 12.8382C7.39948 12.6224 7.48403 12.415 7.63536 12.2596C7.78669 12.1042 7.99301 12.0129 8.21095 12.0049H16.6375C16.8554 12.0129 17.0617 12.1042 17.2131 12.2596C17.3644 12.415 17.4489 12.6224 17.4489 12.8382C17.4489 13.054 17.3644 13.2614 17.2131 13.4168C17.0617 13.5722 16.8554 13.6635 16.6375 13.6715Z" fill="white"/>
</g>
<defs>
<clipPath id="clip0_86_1011">
<rect width="16" height="20" fill="white" transform="translate(4 2)"/>
</clipPath>
</defs>
</svg>
