<svg width="16" height="16" viewBox="0 0 16 16" fill="none" xmlns="http://www.w3.org/2000/svg">
<g clip-path="url(#clip0_89_2443)">
<path d="M13.656 2.34398C12.5371 1.2252 11.1117 0.463316 9.55984 0.154668C8.008 -0.153981 6.39949 0.00447017 4.93771 0.609983C3.47592 1.2155 2.22652 2.24088 1.34748 3.55646C0.468449 4.87205 -0.000732422 6.41875 -0.000732422 8.00098C-0.000732422 9.58321 0.468449 11.1299 1.34748 12.4455C2.22652 13.7611 3.47592 14.7865 4.93771 15.392C6.39949 15.9975 8.008 16.1559 9.55984 15.8473C11.1117 15.5386 12.5371 14.7768 13.656 13.658C14.3989 12.9151 14.9882 12.0332 15.3903 11.0625C15.7923 10.0919 15.9993 9.05159 15.9993 8.00098C15.9993 6.95037 15.7923 5.91005 15.3903 4.93942C14.9882 3.96879 14.3989 3.08685 13.656 2.34398ZM11.408 10.272C11.5586 10.4226 11.6432 10.6269 11.6432 10.84C11.6432 11.053 11.5586 11.2573 11.408 11.408C11.2573 11.5586 11.053 11.6433 10.84 11.6433C10.6269 11.6433 10.4226 11.5586 10.272 11.408L7.99998 9.12798L5.72798 11.408C5.65339 11.4826 5.56483 11.5417 5.46738 11.5821C5.36992 11.6225 5.26546 11.6433 5.15998 11.6433C5.05449 11.6433 4.95003 11.6225 4.85258 11.5821C4.75512 11.5417 4.66657 11.4826 4.59198 11.408C4.51739 11.3334 4.45822 11.2448 4.41785 11.1474C4.37748 11.0499 4.3567 10.9455 4.3567 10.84C4.3567 10.7345 4.37748 10.63 4.41785 10.5326C4.45822 10.4351 4.51739 10.3466 4.59198 10.272L6.87198 7.99998L4.59198 5.72798C4.44133 5.57734 4.3567 5.37302 4.3567 5.15998C4.3567 4.94694 4.44133 4.74262 4.59198 4.59198C4.74262 4.44134 4.94693 4.35671 5.15998 4.35671C5.37302 4.35671 5.57733 4.44134 5.72798 4.59198L7.99998 6.87198L10.272 4.59198C10.4226 4.44134 10.6269 4.35671 10.84 4.35671C11.053 4.35671 11.2573 4.44134 11.408 4.59198C11.5586 4.74262 11.6432 4.94694 11.6432 5.15998C11.6432 5.37302 11.5586 5.57734 11.408 5.72798L9.12798 7.99998L11.408 10.272Z" fill="#FF4040"/>
</g>
<defs>
<clipPath id="clip0_89_2443">
<rect width="16" height="16.001" fill="white"/>
</clipPath>
</defs>
</svg>
