<svg width="24" height="24" viewBox="0 0 24 24" fill="none" xmlns="http://www.w3.org/2000/svg">
<path d="M19.3846 0H4.61538C2.06638 0 0 2.06638 0 4.61538V19.3846C0 21.9336 2.06638 24 4.61538 24H19.3846C21.9336 24 24 21.9336 24 19.3846V4.61538C24 2.06638 21.9336 0 19.3846 0Z" fill="white"/>
<g clip-path="url(#clip0_86_163)">
<path d="M12.8403 10.4833C14.6943 10.4833 16.1973 8.98031 16.1973 7.12629C16.1973 5.27227 14.6943 3.76929 12.8403 3.76929C10.9863 3.76929 9.48328 5.27227 9.48328 7.12629C9.48328 8.98031 10.9863 10.4833 12.8403 10.4833Z" fill="#05A1AB"/>
<path d="M19.9743 10.4834C21.133 10.4834 22.0723 9.54405 22.0723 8.38535C22.0723 7.22666 21.133 6.28735 19.9743 6.28735C18.8156 6.28735 17.8763 7.22666 17.8763 8.38535C17.8763 9.54405 18.8156 10.4834 19.9743 10.4834Z" fill="#05A1AB"/>
<path d="M5.70628 10.4834C6.86497 10.4834 7.80428 9.54405 7.80428 8.38535C7.80428 7.22666 6.86497 6.28735 5.70628 6.28735C4.54758 6.28735 3.60828 7.22666 3.60828 8.38535C3.60828 9.54405 4.54758 10.4834 5.70628 10.4834Z" fill="#05A1AB"/>
<path d="M8.04829 12.4733C7.29349 11.934 6.35545 11.7164 5.44029 11.8683C4.73443 11.867 4.05685 12.1456 3.55614 12.6432C3.05543 13.1407 2.77246 13.8165 2.76929 14.5223V18.8223C2.77008 19.1286 2.89236 19.422 3.10928 19.6381C3.32621 19.8543 3.62004 19.9756 3.92629 19.9753C6.68129 19.9753 6.34929 20.0253 6.34929 19.8563C6.34929 16.8083 5.98929 14.5763 8.04829 12.4733Z" fill="#05A1AB"/>
<path d="M13.7783 11.8872C12.9944 11.7485 12.1904 11.7715 11.4157 11.9548C10.641 12.1381 9.91194 12.4779 9.27331 12.9532C7.11531 14.6822 7.53031 17.0092 7.53031 19.8532C7.53084 20.2185 7.67619 20.5687 7.9345 20.827C8.19281 21.0853 8.54301 21.2307 8.90831 21.2312C17.2083 21.2312 17.5433 21.4992 18.0353 20.4082C18.1963 20.0392 18.1523 20.1562 18.1523 16.6282C18.1492 15.4338 17.6981 14.2841 16.8882 13.4063C16.0783 12.5284 14.9686 11.9863 13.7783 11.8872Z" fill="#05A1AB"/>
<path d="M20.2413 11.8683C19.3261 11.7164 18.3881 11.934 17.6333 12.4733C19.6773 14.5603 19.3333 16.6413 19.3333 19.8533C19.3333 20.0233 19.0573 19.9723 21.7153 19.9723C22.0325 19.9723 22.3368 19.8467 22.5617 19.623C22.7866 19.3992 22.9137 19.0955 22.9153 18.7783V14.5223C22.9121 13.8159 22.6287 13.1397 22.1274 12.6421C21.626 12.1445 20.9477 11.8662 20.2413 11.8683Z" fill="#05A1AB"/>
</g>
<defs>
<clipPath id="clip0_86_163">
<rect width="20.143" height="17.491" fill="white" transform="translate(2.76929 3.76929)"/>
</clipPath>
</defs>
</svg>
