<svg width="24" height="24" viewBox="0 0 24 24" fill="none" xmlns="http://www.w3.org/2000/svg">
<g clip-path="url(#clip0_86_967)">
<path d="M12.071 9.714C13.925 9.714 15.428 8.21102 15.428 6.357C15.428 4.50298 13.925 3 12.071 3C10.217 3 8.71399 4.50298 8.71399 6.357C8.71399 8.21102 10.217 9.714 12.071 9.714Z" fill="white"/>
<path d="M19.2051 9.71407C20.3637 9.71407 21.3031 8.77476 21.3031 7.61607C21.3031 6.45737 20.3637 5.51807 19.2051 5.51807C18.0464 5.51807 17.1071 6.45737 17.1071 7.61607C17.1071 8.77476 18.0464 9.71407 19.2051 9.71407Z" fill="white"/>
<path d="M4.93699 9.71407C6.09568 9.71407 7.03499 8.77476 7.03499 7.61607C7.03499 6.45737 6.09568 5.51807 4.93699 5.51807C3.7783 5.51807 2.83899 6.45737 2.83899 7.61607C2.83899 8.77476 3.7783 9.71407 4.93699 9.71407Z" fill="white"/>
<path d="M7.279 11.704C6.5242 11.1647 5.58616 10.9471 4.671 11.099C3.96514 11.0977 3.28756 11.3763 2.78685 11.8739C2.28615 12.3714 2.00318 13.0472 2 13.753V18.053C2.00079 18.3593 2.12308 18.6527 2.34 18.8689C2.55692 19.085 2.85076 19.2063 3.157 19.206C5.912 19.206 5.58 19.256 5.58 19.087C5.58 16.039 5.22 13.807 7.279 11.704Z" fill="white"/>
<path d="M13.009 11.1179C12.2251 10.9792 11.4211 11.0022 10.6464 11.1855C9.8717 11.3688 9.14265 11.7086 8.50402 12.1839C6.34602 13.9129 6.76103 16.2399 6.76103 19.0839C6.76156 19.4492 6.90691 19.7994 7.16522 20.0577C7.42353 20.316 7.77372 20.4614 8.13902 20.4619C16.439 20.4619 16.774 20.7299 17.266 19.6389C17.427 19.2699 17.383 19.3869 17.383 15.8589C17.3799 14.6645 16.9288 13.5148 16.1189 12.637C15.309 11.7591 14.1993 11.217 13.009 11.1179Z" fill="white"/>
<path d="M19.472 11.099C18.5569 10.9471 17.6188 11.1647 16.864 11.704C18.908 13.791 18.564 15.872 18.564 19.084C18.564 19.254 18.288 19.203 20.946 19.203C21.2632 19.203 21.5675 19.0774 21.7924 18.8537C22.0173 18.6299 22.1444 18.3263 22.146 18.009V13.753C22.1429 13.0467 21.8595 12.3704 21.3581 11.8728C20.8567 11.3752 20.1784 11.0969 19.472 11.099Z" fill="white"/>
</g>
<defs>
<clipPath id="clip0_86_967">
<rect width="20.143" height="17.491" fill="white" transform="translate(2 3)"/>
</clipPath>
</defs>
</svg>
