<svg width="18" height="18" viewBox="0 0 18 18" fill="none" xmlns="http://www.w3.org/2000/svg">
<path d="M14.8944 5.03101H3.10783C3.02302 5.03089 2.93902 5.04644 2.86063 5.07678C2.78224 5.10712 2.711 5.15166 2.65098 5.20783C2.59097 5.264 2.54336 5.33071 2.51087 5.40414C2.47839 5.47758 2.46167 5.5563 2.46167 5.6358V15.0858C2.46294 15.8583 2.79109 16.5988 3.3741 17.1448C3.95712 17.6908 4.7474 17.9977 5.57153 17.9982H12.4307C13.2548 17.9977 14.0451 17.6908 14.6281 17.1448C15.2111 16.5988 15.5393 15.8583 15.5405 15.0858V5.6358C15.5405 5.5563 15.5238 5.47758 15.4913 5.40414C15.4589 5.33071 15.4112 5.264 15.3512 5.20783C15.2912 5.15166 15.22 5.10712 15.1416 5.07678C15.0632 5.04644 14.9792 5.03089 14.8944 5.03101ZM7.44762 14.3577C7.44762 14.555 7.36401 14.7442 7.21519 14.8837C7.06638 15.0232 6.86454 15.1016 6.65408 15.1016C6.44361 15.1016 6.24177 15.0232 6.09295 14.8837C5.94413 14.7442 5.86053 14.555 5.86053 14.3577V8.67781C5.86053 8.48053 5.94413 8.29132 6.09295 8.15182C6.24177 8.01233 6.44361 7.93395 6.65408 7.93395C6.86454 7.93395 7.06638 8.01233 7.21519 8.15182C7.36401 8.29132 7.44762 8.48053 7.44762 8.67781V14.3577ZM12.1398 14.3577C12.1398 14.555 12.0562 14.7442 11.9073 14.8837C11.7585 15.0232 11.5567 15.1016 11.3462 15.1016C11.1358 15.1016 10.9339 15.0232 10.7851 14.8837C10.6363 14.7442 10.5527 14.555 10.5527 14.3577V8.67781C10.5527 8.48053 10.6363 8.29132 10.7851 8.15182C10.9339 8.01233 11.1358 7.93395 11.3462 7.93395C11.5567 7.93395 11.7585 8.01233 11.9073 8.15182C12.0562 8.29132 12.1398 8.48053 12.1398 8.67781V14.3577Z" fill="#FF4040"/>
<path d="M14.2461 0.9414H11.433V0.7128C11.4327 0.523827 11.3525 0.342662 11.21 0.209037C11.0674 0.075413 10.8741 0.000238152 10.6725 0L7.32746 0C7.12586 0.000238152 6.93259 0.075413 6.79004 0.209037C6.64748 0.342662 6.56729 0.523827 6.56703 0.7128V0.9414H3.75385C3.23607 0.941638 2.73953 1.13443 2.37322 1.47746C2.00691 1.82049 1.80075 2.28574 1.79999 2.7711V3.9411C1.79999 3.99105 1.8105 4.04051 1.83092 4.08665C1.85134 4.13279 1.88127 4.1747 1.919 4.20998C1.95673 4.24526 2.0015 4.27321 2.05077 4.29225C2.10004 4.31128 2.15284 4.32102 2.20613 4.3209H15.7948C15.9023 4.3209 16.0053 4.28089 16.0813 4.20966C16.1573 4.13843 16.2 4.04183 16.2 3.9411V2.7711C16.1992 2.28574 15.9931 1.82049 15.6268 1.47746C15.2605 1.13443 14.7639 0.941638 14.2461 0.9414Z" fill="#FF4040"/>
</svg>
