<svg width="30" height="30" viewBox="0 0 30 30" fill="none" xmlns="http://www.w3.org/2000/svg">
<path d="M18.855 8.4225C18.3341 8.42184 17.8346 8.2146 17.4663 7.84623C17.0979 7.47787 16.8907 6.97845 16.89 6.4575V0H6.83875C6.01977 0.000662073 5.23451 0.326296 4.6554 0.905405C4.07629 1.48451 3.75066 2.26977 3.75 3.08875V25.6612C3.75066 26.4802 4.07629 27.2655 4.6554 27.8446C5.23451 28.4237 6.01977 28.7493 6.83875 28.75H22.56C23.379 28.7493 24.1642 28.4237 24.7433 27.8446C25.3225 27.2655 25.6481 26.4802 25.6487 25.6612V8.4225H18.855ZM8.355 20.2137H12.4375C12.6609 20.2137 12.8752 20.3025 13.0332 20.4605C13.1912 20.6185 13.28 20.8328 13.28 21.0562C13.28 21.2797 13.1912 21.494 13.0332 21.652C12.8752 21.81 12.6609 21.8987 12.4375 21.8987H8.355C8.13155 21.8987 7.91727 21.81 7.75927 21.652C7.60127 21.494 7.5125 21.2797 7.5125 21.0562C7.5125 20.8328 7.60127 20.6185 7.75927 20.4605C7.91727 20.3025 8.13155 20.2137 8.355 20.2137ZM7.5125 16.5638C7.5125 16.4531 7.53429 16.3436 7.57663 16.2413C7.61897 16.1391 7.68103 16.0462 7.75927 15.968C7.8375 15.8898 7.93037 15.8277 8.03259 15.7854C8.13481 15.743 8.24436 15.7212 8.355 15.7212H20.7088C20.9322 15.7212 21.1465 15.81 21.3045 15.968C21.4625 16.126 21.5512 16.3403 21.5512 16.5638C21.5512 16.7872 21.4625 17.0015 21.3045 17.1595C21.1465 17.3175 20.9322 17.4062 20.7088 17.4062H8.355C8.13177 17.4062 7.91767 17.3177 7.7597 17.1599C7.60174 17.0022 7.51283 16.787 7.5125 16.5638ZM20.7075 11.23C20.9309 11.23 21.1452 11.3188 21.3032 11.4768C21.4612 11.6348 21.55 11.8491 21.55 12.0725C21.55 12.2959 21.4612 12.5102 21.3032 12.6682C21.1452 12.8262 20.9309 12.915 20.7075 12.915H8.355C8.13155 12.915 7.91727 12.8262 7.75927 12.6682C7.60127 12.5102 7.5125 12.2959 7.5125 12.0725C7.5125 11.8491 7.60127 11.6348 7.75927 11.4768C7.91727 11.3188 8.13155 11.23 8.355 11.23H20.7075Z" fill="#05A1AB"/>
<path d="M18.5738 6.45631C18.5738 6.5309 18.6034 6.60244 18.6561 6.65518C18.7089 6.70793 18.7804 6.73756 18.855 6.73756H25.2737C25.1191 6.45088 24.92 6.19056 24.6838 5.96631L19.27 0.841308C19.0626 0.643274 18.8287 0.475 18.575 0.341309V6.44881L18.5738 6.45631Z" fill="#05A1AB"/>
</svg>
