<svg width="18" height="18" viewBox="0 0 18 18" fill="none" xmlns="http://www.w3.org/2000/svg">
<path d="M9.00032 8.50689L16.0336 4.16341C15.8312 3.84807 15.5589 3.58926 15.2403 3.4093C14.9216 3.22934 14.5662 3.13361 14.2047 3.13037H3.79597C3.43255 3.1302 3.07459 3.22352 2.75323 3.4022C2.43188 3.58088 2.15688 3.83951 1.95215 4.15559L9.00032 8.50689Z" fill="#93AFB1"/>
<path d="M9.74369 9.85285C9.51783 9.98998 9.26193 10.0628 9.0012 10.0642C8.74046 10.0656 8.48389 9.99542 8.25673 9.86068L1.56543 5.73633V13.3042C1.56543 13.9268 1.80042 14.524 2.21871 14.9643C2.637 15.4046 3.20432 15.652 3.79586 15.652H14.2046C14.7961 15.652 15.3634 15.4046 15.7817 14.9643C16.2 14.524 16.435 13.9268 16.435 13.3042V5.73633L9.74369 9.85285Z" fill="#93AFB1"/>
</svg>
