<svg width="24" height="24" viewBox="0 0 24 24" fill="none" xmlns="http://www.w3.org/2000/svg">
<path d="M19.3846 0H4.61538C2.06638 0 0 2.06638 0 4.61538V19.3846C0 21.9336 2.06638 24 4.61538 24H19.3846C21.9336 24 24 21.9336 24 19.3846V4.61538C24 2.06638 21.9336 0 19.3846 0Z" fill="white"/>
<g clip-path="url(#clip0_86_207)">
<path fill-rule="evenodd" clip-rule="evenodd" d="M10.2678 11.4068L8.9562 16.4596C8.89441 16.6971 8.91043 16.9472 9.00206 17.1756C9.0937 17.404 9.25645 17.5996 9.468 17.7353L11.316 18.9218C11.5184 19.0518 11.7562 19.1212 11.9994 19.1212C12.2426 19.1212 12.4804 19.0518 12.6828 18.9218L14.5308 17.7353C14.7424 17.5996 14.9051 17.404 14.9968 17.1756C15.0884 16.9472 15.1044 16.6971 15.0426 16.4596L13.7311 11.4068H14.2389C15.4926 11.4069 16.7093 11.8162 17.6904 12.5681C18.6715 13.3199 19.3591 14.3699 19.641 15.5467L20.2593 18.1277C20.3226 18.3889 20.3238 18.6605 20.2628 18.9223C20.2018 19.184 20.0801 19.4291 19.907 19.6392C19.7338 19.8493 19.5136 20.019 19.2628 20.1356C19.012 20.2522 18.7371 20.3127 18.4586 20.3125H5.54023C5.26174 20.3127 4.98682 20.2522 4.73601 20.1356C4.4852 20.019 4.26499 19.8493 4.09183 19.6392C3.91868 19.4291 3.79705 19.184 3.73605 18.9223C3.67504 18.6605 3.67624 18.3889 3.73954 18.1277L4.35785 15.5467C4.63972 14.3699 5.32731 13.3199 6.30842 12.5681C7.28952 11.8162 8.5062 11.4069 9.7599 11.4068H10.2678ZM12.4619 11.4068H11.5379L10.1514 16.7474L12.0004 17.9339L13.8484 16.7474C13.7853 16.5042 13.6315 16.8861 13.8484 16.7474L12.4619 11.4068ZM12.0004 3.69238C11.2694 3.69238 10.5548 3.90119 9.94699 4.29241C9.33918 4.68363 8.86545 5.23969 8.58571 5.89026C8.30596 6.54083 8.23277 7.2567 8.37538 7.94735C8.51799 8.63799 8.87 9.27239 9.3869 9.77032C9.9038 10.2682 10.5624 10.6073 11.2793 10.7447C11.9963 10.8821 12.7394 10.8116 13.4148 10.5421C14.0902 10.2726 14.6674 9.81629 15.0735 9.23079C15.4797 8.64529 15.6964 7.95693 15.6964 7.25275C15.6959 6.30864 15.3063 5.40334 14.6133 4.73575C13.9203 4.06816 12.9805 3.69289 12.0004 3.69238Z" fill="#05A1AB"/>
</g>
<defs>
<clipPath id="clip0_86_207">
<rect width="16.6154" height="16.6154" fill="white" transform="translate(3.69226 3.69238)"/>
</clipPath>
</defs>
</svg>
