<svg width="24" height="24" viewBox="0 0 24 24" fill="none" xmlns="http://www.w3.org/2000/svg">
<path d="M8.16036 22.7995H9.14148H15.4666H16.4466C19.3733 22.7995 21.6093 22.6496 21.6093 19.5792C21.6099 18.0422 21.0384 16.5604 20.0068 15.4243C18.9752 14.2883 17.558 13.58 16.033 13.4382C16.0081 14.562 12.3052 17.3376 12.3052 17.3376C12.3052 17.3376 8.60115 14.5644 8.57627 13.4382C7.05169 13.5799 5.6348 14.2879 4.60328 15.4234C3.57175 16.559 2.99998 18.0402 3 19.5768C3 22.6472 5.23596 22.7971 8.16155 22.7971L8.16036 22.7995ZM15.0673 18.6064C15.0701 18.5599 15.0911 18.5164 15.1257 18.4854C15.1603 18.4545 15.2058 18.4385 15.2522 18.4411H16.2522V17.4374C16.2496 17.3909 16.2655 17.3453 16.2964 17.3105C16.3273 17.2758 16.3706 17.2547 16.4169 17.2519H17.404C17.4503 17.2547 17.4937 17.2758 17.5245 17.3105C17.5554 17.3453 17.5713 17.3909 17.5687 17.4374V18.4411H18.5688C18.6149 18.4388 18.6601 18.4549 18.6945 18.4859C18.7288 18.5168 18.7497 18.5601 18.7524 18.6064V19.597C18.7497 19.6433 18.7288 19.6866 18.6945 19.7175C18.6601 19.7485 18.6149 19.7646 18.5688 19.7623H17.5687V20.766C17.571 20.8123 17.5549 20.8576 17.5241 20.8921C17.4932 20.9266 17.4501 20.9475 17.404 20.9503H16.4169C16.3708 20.9475 16.3277 20.9266 16.2968 20.8921C16.266 20.8576 16.25 20.8123 16.2522 20.766V19.7623H15.2522C15.2058 19.7649 15.1603 19.749 15.1257 19.718C15.0911 19.687 15.0701 19.6435 15.0673 19.597V18.6064Z" fill="white"/>
<path d="M12.3052 14.248C15.1336 14.248 17.4264 9.9788 17.4264 7.14023C17.4264 5.77696 16.8868 4.46952 15.9263 3.50554C14.9658 2.54156 13.663 2 12.3046 2C10.9462 2 9.64343 2.54156 8.68289 3.50554C7.72236 4.46952 7.18274 5.77696 7.18274 7.14023C7.18392 9.97761 9.47202 14.248 12.3052 14.248Z" fill="white"/>
</svg>
