<svg width="18" height="18" viewBox="0 0 18 18" fill="none" xmlns="http://www.w3.org/2000/svg">
<path fill-rule="evenodd" clip-rule="evenodd" d="M7.79118 1.03918C8.03203 1.10812 8.23909 1.28325 8.36693 1.52615C8.49477 1.76906 8.53295 2.0599 8.47311 2.33489L8.06072 4.21504H10.8177L11.3395 1.81729C11.3687 1.68015 11.4214 1.55096 11.4945 1.43716C11.5677 1.32336 11.6598 1.22719 11.7657 1.1542C11.8716 1.08122 11.989 1.03284 12.1113 1.01188C12.2337 0.990907 12.3584 0.997756 12.4784 1.03203C12.5984 1.0663 12.7112 1.12732 12.8104 1.21157C12.9097 1.29581 12.9933 1.40163 13.0566 1.52292C13.1198 1.64421 13.1614 1.77858 13.1789 1.91828C13.1965 2.05799 13.1896 2.20027 13.1587 2.33694L12.7464 4.21709H15.0623C15.311 4.21709 15.5495 4.32982 15.7253 4.53048C15.9012 4.73114 16 5.0033 16 5.28708C16 5.57086 15.9012 5.84301 15.7253 6.04367C15.5495 6.24433 15.311 6.35707 15.0623 6.35707H12.2772L11.3395 10.6363H13.1922C13.4409 10.6363 13.6794 10.7491 13.8553 10.9497C14.0311 11.1504 14.1299 11.4225 14.1299 11.7063C14.1299 11.9901 14.0311 12.2623 13.8553 12.4629C13.6794 12.6636 13.4409 12.7763 13.1922 12.7763H10.8733L10.348 15.1747C10.3195 15.3128 10.2674 15.443 10.1944 15.5578C10.1215 15.6726 10.0293 15.7698 9.92325 15.8436C9.81715 15.9174 9.69925 15.9664 9.5764 15.9878C9.45356 16.0091 9.32821 16.0024 9.20766 15.9681C9.08711 15.9337 8.97374 15.8723 8.87416 15.7875C8.77458 15.7026 8.69077 15.5961 8.62759 15.474C8.56442 15.3519 8.52314 15.2167 8.50616 15.0762C8.48918 14.9358 8.49684 14.7928 8.52869 14.6558L8.94107 12.7756H6.18527L5.66173 15.1747C5.6333 15.3128 5.58112 15.443 5.50821 15.5578C5.4353 15.6726 5.34311 15.7698 5.23702 15.8436C5.13092 15.9174 5.01302 15.9664 4.89017 15.9878C4.76733 16.0091 4.64198 16.0024 4.52143 15.9681C4.40088 15.9337 4.28751 15.8723 4.18793 15.7875C4.08835 15.7026 4.00454 15.5961 3.94136 15.474C3.87819 15.3519 3.83691 15.2167 3.81993 15.0762C3.80295 14.9358 3.81061 14.7928 3.84246 14.6558L4.25484 12.7756H1.93772C1.68902 12.7756 1.45051 12.6629 1.27465 12.4622C1.0988 12.2616 1 11.9894 1 11.7056C1 11.4219 1.0988 11.1497 1.27465 10.949C1.45051 10.7484 1.68902 10.6357 1.93772 10.6357H4.72281L5.66173 6.35638H3.81317C3.56447 6.35638 3.32596 6.24365 3.1501 6.04299C2.97424 5.84233 2.87545 5.57017 2.87545 5.2864C2.87545 5.00262 2.97424 4.73046 3.1501 4.5298C3.32596 4.32914 3.56447 4.21641 3.81317 4.21641H6.12909L6.65444 1.81661C6.71485 1.54178 6.86833 1.30552 7.08121 1.15965C7.29409 1.01378 7.54899 0.970206 7.78998 1.03849L7.79118 1.03918ZM7.59156 6.35843L6.65384 10.6363H9.40904L10.3468 6.35638H7.59276L7.59156 6.35843Z" fill="#93AFB1"/>
</svg>
