<svg width="24" height="24" viewBox="0 0 24 24" fill="none" xmlns="http://www.w3.org/2000/svg">
<g clip-path="url(#clip0_89_1355)">
<path d="M19.3846 0H4.61538C2.06638 0 0 2.06638 0 4.61538V19.3846C0 21.9336 2.06638 24 4.61538 24H19.3846C21.9336 24 24 21.9336 24 19.3846V4.61538C24 2.06638 21.9336 0 19.3846 0Z" fill="white"/>
<path d="M10.3333 17.8334V13.6668H13.6666V17.8334C13.6666 18.2918 14.0416 18.6668 14.5 18.6668H17C17.4583 18.6668 17.8333 18.2918 17.8333 17.8334V12.0001H19.25C19.6333 12.0001 19.8166 11.5251 19.525 11.2751L12.5583 5.0001C12.2416 4.71676 11.7583 4.71676 11.4416 5.0001L4.47496 11.2751C4.19163 11.5251 4.36663 12.0001 4.74996 12.0001H6.16663V17.8334C6.16663 18.2918 6.54163 18.6668 6.99996 18.6668H9.49996C9.95829 18.6668 10.3333 18.2918 10.3333 17.8334Z" fill="#05A1AB"/>
</g>
<defs>
<clipPath id="clip0_89_1355">
<rect width="24" height="24" fill="white"/>
</clipPath>
</defs>
</svg>
