<svg width="20" height="15" viewBox="0 0 20 15" fill="none" xmlns="http://www.w3.org/2000/svg">
<path opacity="0.4" fill-rule="evenodd" clip-rule="evenodd" d="M0.714716 6.64015C0.614768 6.73987 0.535471 6.85833 0.481367 6.98874C0.427263 7.11915 0.399414 7.25896 0.399414 7.40015C0.399414 7.54134 0.427263 7.68114 0.481367 7.81155C0.535471 7.94196 0.614768 8.06042 0.714716 8.16015L6.44032 13.8857C6.54012 13.9856 6.65861 14.0647 6.78901 14.1187C6.91941 14.1727 7.05917 14.2006 7.20032 14.2006C7.34146 14.2006 7.48122 14.1727 7.61162 14.1187C7.74203 14.0647 7.86051 13.9856 7.96032 13.8857C8.06012 13.7859 8.13929 13.6675 8.1933 13.5371C8.24732 13.4067 8.27512 13.2669 8.27512 13.1257C8.27512 12.9846 8.24732 12.8448 8.1933 12.7144C8.13929 12.584 8.06012 12.4656 7.96032 12.3657L4.06592 8.47375H18.6531C18.9379 8.47375 19.2109 8.36064 19.4123 8.1593C19.6136 7.95796 19.7267 7.68488 19.7267 7.40015C19.7267 7.11541 19.6136 6.84234 19.4123 6.641C19.2109 6.43966 18.9379 6.32655 18.6531 6.32655H4.06592L7.96032 2.43295C8.16188 2.23138 8.27512 1.958 8.27512 1.67295C8.27512 1.38789 8.16188 1.11451 7.96032 0.912947C7.75875 0.711382 7.48537 0.598145 7.20032 0.598145C6.91526 0.598145 6.64188 0.711382 6.44032 0.912947L0.714716 6.64015Z" fill="#43686A"/>
<path d="M0.714716 8.16001C0.614768 8.06029 0.535471 7.94183 0.481367 7.81142C0.427263 7.68101 0.399414 7.5412 0.399414 7.40001C0.399414 7.25882 0.427263 7.11902 0.481367 6.98861C0.535471 6.8582 0.614768 6.73974 0.714716 6.64001L6.44032 0.914412C6.54012 0.814607 6.65861 0.735438 6.78901 0.681424C6.91941 0.62741 7.05917 0.599609 7.20032 0.599609C7.34146 0.599609 7.48122 0.62741 7.61162 0.681424C7.74203 0.735438 7.86051 0.814607 7.96032 0.914412C8.06012 1.01422 8.13929 1.1327 8.1933 1.2631C8.24732 1.3935 8.27512 1.53327 8.27512 1.67441C8.27512 1.81556 8.24732 1.95532 8.1933 2.08572C8.13929 2.21612 8.06012 2.33461 7.96032 2.43441L2.94832 7.39441L7.96032 12.3672C8.16188 12.5688 8.27512 12.8422 8.27512 13.1272C8.27512 13.4123 8.16188 13.6856 7.96032 13.8872C7.75875 14.0888 7.48537 14.202 7.20032 14.202C6.91526 14.202 6.64188 14.0888 6.44032 13.8872L0.714716 8.16001Z" fill="#43686A"/>
</svg>
