<svg width="30" height="30" viewBox="0 0 30 30" fill="none" xmlns="http://www.w3.org/2000/svg">
<path d="M21.988 4.50576C20.8638 3.55286 19.5595 2.83558 18.1527 2.39651C16.7459 1.95744 15.2652 1.80554 13.7986 1.94982C12.3319 2.0941 10.9092 2.53162 9.61493 3.23641C8.32065 3.94119 7.18119 4.89887 6.26421 6.05257C5.34723 7.20627 4.67142 8.53247 4.27692 9.95242C3.88242 11.3724 3.77728 12.8571 3.96773 14.3185C4.15817 15.7799 4.64033 17.1881 5.38558 18.4595C6.13082 19.7309 7.12394 20.8396 8.30598 21.7198C10.219 23.1171 11.8481 24.8663 13.106 26.8738L13.962 28.2958C14.0707 28.4763 14.2242 28.6257 14.4076 28.7294C14.5911 28.8331 14.7982 28.8876 15.009 28.8876C15.2197 28.8876 15.4269 28.8331 15.6103 28.7294C15.7938 28.6257 15.9473 28.4763 16.056 28.2958L16.876 26.9298C17.9697 25.0079 19.4609 23.3415 21.25 22.0418C22.6527 21.0767 23.8119 19.7989 24.6363 18.3091C25.4606 16.8194 25.9275 15.1584 26 13.4574C26.0725 11.7563 25.7488 10.0616 25.0542 8.5071C24.3597 6.95257 23.3134 5.58071 21.998 4.49976L21.988 4.50576ZM14.998 17.8898C14.0313 17.8894 13.0865 17.6024 12.2829 17.065C11.4793 16.5277 10.8531 15.7641 10.4835 14.8709C10.1138 13.9777 10.0173 12.995 10.2061 12.0469C10.395 11.0989 10.8607 10.2281 11.5443 9.54471C12.228 8.86131 13.099 8.39598 14.0471 8.20753C14.9952 8.01909 15.978 8.11601 16.871 8.48603C17.764 8.85605 18.5273 9.48255 19.0643 10.2863C19.6014 11.0901 19.888 12.0351 19.888 13.0018C19.888 13.6438 19.7615 14.2796 19.5157 14.8728C19.2699 15.4659 18.9097 16.0049 18.4556 16.4588C18.0015 16.9127 17.4624 17.2727 16.8692 17.5183C16.2759 17.7638 15.64 17.89 14.998 17.8898Z" fill="#05A1AB"/>
</svg>
