<svg width="105" height="51" viewBox="0 0 105 51" fill="none" xmlns="http://www.w3.org/2000/svg">
<g clip-path="url(#clip0_6_328)">
<path d="M0 44.6286L9.48583 -0.000136871H21.1021C23.1958 -0.0505674 25.2811 0.281609 27.2541 0.979867C28.8147 1.54468 30.2348 2.43652 31.4182 3.59489C32.4745 4.65389 33.2772 5.93588 33.7666 7.34561C34.2573 8.75704 34.5061 10.2404 34.5026 11.7337C34.5168 13.8546 34.1346 15.9596 33.3753 17.9417C32.6308 19.8723 31.4588 21.6116 29.9462 23.0307C28.2643 24.5715 26.2749 25.743 24.1074 26.469C21.4246 27.3607 18.6075 27.7868 15.7793 27.7287H8.95461L5.38514 44.6286H0ZM9.98561 23.0302H16.2801C18.2176 23.0717 20.1487 22.7928 21.9942 22.2049C23.456 21.7335 24.8006 20.9594 25.9393 19.9335C26.9609 18.9865 27.7437 17.8135 28.2243 16.5098C28.7264 15.1283 28.9758 13.6686 28.9608 12.1998C28.9743 11.1499 28.7773 10.1078 28.3814 9.1343C28.0058 8.22433 27.4213 7.41425 26.6748 6.76869C25.8565 6.07712 24.9024 5.56236 23.8732 5.25712C22.619 4.88621 21.315 4.70863 20.0067 4.73059H13.9018L9.98561 23.0302ZM76.5273 44.0874C75.7932 43.7878 75.1318 43.3359 74.5875 42.7618C74.0499 42.1852 73.6382 41.5043 73.378 40.762C73.0938 39.9564 72.9525 39.1079 72.9604 38.2543C72.9605 37.6253 73.0156 36.9974 73.1251 36.3779C73.2328 35.7694 73.4002 35.1728 73.6249 34.5968C73.8474 34.0282 74.1269 33.4833 74.4592 32.9703C74.7909 32.4565 75.1792 31.9811 75.617 31.553C75.9602 31.2255 76.3324 30.9294 76.729 30.6682C77.5677 30.1151 78.5089 29.7339 79.4977 29.5471C80.0575 29.4429 80.6261 29.3923 81.1957 29.3959C82.0507 29.3858 82.9003 29.5316 83.7023 29.8262C84.435 30.096 85.1005 30.5198 85.6533 31.0688C86.2105 31.6356 86.6422 32.3122 86.9205 33.055C87.2331 33.9013 87.3864 34.7977 87.3726 35.6992C87.3731 36.2923 87.3223 36.8843 87.2205 37.4688C87.1203 38.0558 86.9676 38.6328 86.7643 39.193C86.5624 39.7494 86.3078 40.2856 86.004 40.7942C85.7035 41.3001 85.3464 41.7707 84.9396 42.197C84.5968 42.5576 84.2215 42.8863 83.8183 43.179C83.4067 43.4761 82.9627 43.7262 82.4949 43.9247C81.9964 44.1363 81.4773 44.2962 80.9458 44.4018C80.3525 44.5175 79.749 44.5738 79.1444 44.5701C78.2483 44.5851 77.3583 44.4209 76.5273 44.0874ZM79.2498 32.6584C78.7448 32.9195 78.2969 33.2774 77.9319 33.7115C77.6887 33.9998 77.4812 34.3162 77.314 34.6537C77.1326 35.0163 76.981 35.3929 76.8608 35.7798C76.7373 36.1764 76.643 36.5814 76.5785 36.9916C76.5133 37.3958 76.4803 37.8046 76.4797 38.214C76.4728 38.7166 76.5441 39.2173 76.691 39.6983C76.8138 40.1021 77.019 40.4763 77.2937 40.7977C77.5518 41.0922 77.8736 41.3248 78.235 41.478C78.6249 41.6391 79.044 41.7192 79.4662 41.7133C80.0244 41.7146 80.5753 41.5884 81.0766 41.3444C81.603 41.0873 82.0625 40.7127 82.4193 40.2501C82.6664 39.9537 82.8774 39.6293 83.0479 39.2837C83.2268 38.9229 83.375 38.5479 83.4909 38.1626C83.6071 37.7739 83.6964 37.3778 83.758 36.977C83.8184 36.5909 83.8492 36.2008 83.8503 35.8101C83.8581 35.3077 83.7867 34.8072 83.6389 34.3267C83.5155 33.9208 83.311 33.5438 83.0377 33.2182C82.7786 32.9162 82.4523 32.6781 82.0848 32.5229C81.6821 32.3562 81.2491 32.2742 80.813 32.282C80.2691 32.2805 79.7329 32.41 79.2503 32.6594L79.2498 32.6584ZM57.1968 44.482C56.7981 44.4271 56.403 44.3487 56.0137 44.2472C55.6597 44.1541 55.3109 44.0427 54.9685 43.9136C54.6764 43.8047 54.3911 43.6781 54.1144 43.5347L54.6801 40.6295C54.9452 40.8204 55.222 40.9948 55.5089 41.1515C55.8104 41.3162 56.1232 41.4595 56.4451 41.5802C56.7742 41.7043 57.1133 41.8002 57.4588 41.8669C57.8077 41.9343 58.1623 41.9681 58.5177 41.9677C58.8555 41.975 59.1925 41.9317 59.5173 41.8392C59.7627 41.7702 59.9904 41.65 60.1854 41.4865C60.3512 41.3463 60.4788 41.1668 60.5564 40.9645C60.6331 40.762 60.6716 40.5471 60.67 40.3307C60.6728 40.1227 60.6358 39.9162 60.561 39.722C60.4789 39.5263 60.3582 39.3488 60.2062 39.2C60.0058 39.0052 59.7866 38.8305 59.5518 38.6785C59.2814 38.4975 58.9504 38.2946 58.5588 38.0699C58.1583 37.8498 57.7763 37.5983 57.4163 37.3176C57.0828 37.0572 56.7851 36.7545 56.5307 36.4172C56.2814 36.0816 56.087 35.7088 55.9549 35.3127C55.8124 34.8751 55.7427 34.4173 55.7486 33.9574C55.7494 33.3866 55.8576 32.8209 56.0675 32.2896C56.2865 31.7339 56.6275 31.2337 57.0655 30.8254C57.567 30.3664 58.1572 30.0134 58.8001 29.7879C59.6084 29.5075 60.4608 29.3737 61.3167 29.3929C61.7092 29.3923 62.1013 29.4145 62.4912 29.4594C62.8678 29.5048 63.2282 29.5637 63.5714 29.6393C63.9145 29.7149 64.2369 29.799 64.539 29.8948C64.8411 29.9905 65.1143 30.0893 65.3612 30.191L64.796 33.0363C64.5836 32.9053 64.3479 32.7778 64.0909 32.6514C63.8245 32.522 63.5495 32.4111 63.2677 32.3193C62.966 32.2223 62.6584 32.1444 62.3467 32.086C62.0142 32.0237 61.6764 31.993 61.338 31.9943C61.0015 31.9854 60.6663 32.039 60.3496 32.1525C60.1119 32.2392 59.8946 32.3733 59.7109 32.5466C59.4364 32.8139 59.2775 33.177 59.2679 33.5588C59.2658 33.7703 59.3027 33.9803 59.3769 34.1786C59.4565 34.3779 59.5713 34.5616 59.716 34.7207C59.8988 34.9193 60.1028 35.0975 60.3243 35.2523C60.5747 35.4333 60.8788 35.633 61.2367 35.8514C61.6682 36.1129 62.0825 36.4015 62.477 36.7155C62.8206 36.9882 63.1303 37.3006 63.3995 37.6461C63.6501 37.9721 63.8445 38.3372 63.9748 38.7264C64.1109 39.1497 64.1771 39.5921 64.171 40.0364C64.1678 40.3459 64.1347 40.6543 64.0722 40.9575C64.0029 41.3057 63.8907 41.6442 63.7381 41.9652C63.5683 42.3201 63.3479 42.6488 63.0837 42.9412C62.7846 43.2732 62.4319 43.5533 62.0401 43.77C61.5661 44.0305 61.0586 44.2252 60.5316 44.3489C59.8587 44.5052 59.1691 44.579 58.4782 44.5686C58.0495 44.5693 57.6214 44.5403 57.1968 44.482ZM38.6327 44.1131C37.8619 43.8427 37.1609 43.4061 36.5799 42.8347C35.9988 42.2632 35.5522 41.5711 35.272 40.8078C34.963 39.9705 34.8108 39.0841 34.8229 38.1923C34.8216 37.4335 34.9042 36.6769 35.0693 35.936C35.2307 35.2154 35.482 34.5177 35.8174 33.8591C36.1515 33.2064 36.5743 32.6025 37.074 32.0644C37.5923 31.5075 38.1925 31.0318 38.8542 30.6536C39.5829 30.2394 40.3659 29.9277 41.1808 29.7275C42.1217 29.4973 43.0879 29.3854 44.0568 29.3944C44.4424 29.3941 44.8277 29.4148 45.211 29.4564C45.5805 29.4977 45.9348 29.5501 46.2714 29.6146C46.608 29.6791 46.9177 29.7522 47.2026 29.8298C47.4874 29.9074 47.7388 29.986 47.9588 30.06L47.2695 33.1915C47.0632 33.0817 46.8422 32.9728 46.6049 32.863C46.3529 32.7484 46.0933 32.651 45.8279 32.5718C45.5285 32.483 45.2238 32.4134 44.9155 32.3632C44.5636 32.3062 44.2075 32.2788 43.851 32.281C43.0401 32.2642 42.2348 32.4188 41.4885 32.7345C40.8341 33.0176 40.247 33.4342 39.765 33.9574C39.2948 34.4735 38.9342 35.0786 38.7046 35.7365C38.4625 36.4236 38.3406 37.1468 38.3443 37.8749C38.3343 38.4362 38.4286 38.9946 38.6225 39.522C38.7928 39.9767 39.0635 40.3877 39.4148 40.7247C39.7692 41.0562 40.1912 41.3081 40.6521 41.4633C41.1725 41.6378 41.7189 41.723 42.268 41.7153C42.623 41.717 42.9775 41.6914 43.3284 41.6387C43.6446 41.5905 43.9574 41.522 44.2647 41.4336C44.5494 41.3522 44.8295 41.2553 45.1035 41.1434C45.3681 41.0336 45.6201 40.9182 45.8603 40.7947L45.1608 43.9151C44.6188 44.1364 44.0547 44.2997 43.478 44.4023C42.7931 44.5202 42.0989 44.5765 41.4038 44.5706C40.46 44.5843 39.5214 44.4293 38.6327 44.1131ZM98.7998 44.3147L94.178 34.9933C94.136 34.9112 94.0919 34.8159 94.0437 34.7081C93.9956 34.6003 93.9474 34.4879 93.8992 34.3751C93.8511 34.2622 93.807 34.1544 93.7654 34.0526C93.729 33.9622 93.6982 33.8696 93.6732 33.7755H93.6113C93.5775 34.0287 93.5399 34.3118 93.4983 34.6245C93.4569 34.9381 93.3987 35.2492 93.3239 35.5566L91.4398 44.3152H88.321L91.4398 29.6428H94.7346L99.1607 38.6155C99.1947 38.6901 99.2377 38.7818 99.2895 38.8866C99.3411 38.9914 99.3908 39.1023 99.4415 39.2141C99.4922 39.326 99.5429 39.4378 99.5855 39.5472C99.6248 39.6398 99.6573 39.7351 99.6828 39.8324H99.7249C99.7309 39.7316 99.7416 39.6162 99.7553 39.4902C99.769 39.3643 99.7872 39.2383 99.806 39.1068C99.8247 38.9753 99.8491 38.8498 99.8729 38.7279C99.8967 38.606 99.919 38.4951 99.9403 38.3994L101.813 29.6423H104.952L101.833 44.3132L98.7998 44.3147ZM65.6445 44.3147L68.7634 29.6423H72.1189L68.9996 44.3147H65.6445ZM47.6425 44.3147L50.7614 29.6423H54.117L50.9981 44.3147H47.6425ZM23.2999 44.3147L26.4391 29.6423H34.939L34.3622 32.3324H29.2061L28.5066 35.6377H33.3139L32.7265 38.3394H27.94L27.2197 41.6321H32.726L32.1491 44.3132L23.2999 44.3147ZM17.6492 44.3147L16.8458 40.5398C16.7694 40.0277 16.5442 39.5489 16.198 39.1622C16.0298 39.0029 15.8307 38.8794 15.6128 38.7993C15.3948 38.7193 15.1628 38.6843 14.9308 38.6967H14.3636L13.1587 44.3132H9.80314L12.9423 29.6408H17.9858C18.7281 29.6242 19.4683 29.7262 20.178 29.9431C20.7201 30.1105 21.2208 30.3889 21.648 30.7604C22.0141 31.0871 22.2965 31.496 22.4717 31.953C22.6448 32.4072 22.7324 32.8892 22.7302 33.3749C22.7396 33.933 22.6317 34.4869 22.4135 35.0012C22.1953 35.5155 21.8716 35.9789 21.463 36.3618C21.0604 36.7381 20.5955 37.0427 20.0888 37.2622C19.5531 37.4977 18.9865 37.6566 18.406 37.7343V37.7746C18.8401 37.9179 19.2203 38.1888 19.4963 38.5515C19.8312 39.0052 20.063 39.5258 20.1755 40.0772L21.2055 44.3127L17.6492 44.3147ZM14.8907 36.2026H16.2385C16.6853 36.2118 17.1305 36.148 17.5564 36.0136C17.8914 35.9071 18.2023 35.7369 18.4719 35.5123C18.7045 35.3136 18.8891 35.0654 19.0122 34.7862C19.1312 34.5132 19.1923 34.2187 19.1916 33.9211C19.2058 33.6776 19.1682 33.4339 19.0814 33.2057C18.9946 32.9776 18.8605 32.7702 18.6878 32.597C18.2607 32.2479 17.7143 32.0769 17.1631 32.1198H15.7727L14.8907 36.2026Z" fill="#05A1AB"/>
<path d="M82.0564 50.9995C81.7925 51.0109 81.5292 50.9658 81.2843 50.8672C81.0394 50.7686 80.8187 50.6189 80.6371 50.4282C80.2714 50.0206 80.08 49.4874 80.1034 48.9418C80.0739 48.369 80.2682 47.807 80.6458 47.3733C80.835 47.1761 81.0647 47.0217 81.3193 46.9206C81.574 46.8196 81.8475 46.7743 82.1213 46.7878C82.3808 46.7773 82.6395 46.8226 82.8798 46.9207C83.12 47.0188 83.3361 47.1673 83.5132 47.3561C83.8764 47.7649 84.0659 48.2977 84.0419 48.8425C84.0732 49.4182 83.879 49.9836 83.5 50.4201C83.3152 50.6138 83.0906 50.7658 82.8416 50.8658C82.5925 50.9657 82.3248 51.0113 82.0564 50.9995ZM82.0879 47.3813C81.9131 47.3765 81.7396 47.4117 81.5807 47.4841C81.4218 47.5565 81.2818 47.6643 81.1714 47.799C80.9239 48.1113 80.798 48.5018 80.8166 48.899C80.7974 49.2926 80.9189 49.6803 81.1597 49.9933C81.2667 50.1271 81.4035 50.2342 81.5593 50.3063C81.7151 50.3784 81.8856 50.4134 82.0574 50.4085C82.2323 50.4167 82.4067 50.3854 82.5676 50.3169C82.7285 50.2485 82.8717 50.1448 82.9866 50.0135C83.2305 49.6979 83.3513 49.3052 83.3267 48.908C83.3524 48.5052 83.2355 48.106 82.9962 47.7799C82.886 47.6483 82.7466 47.5439 82.589 47.4749C82.4314 47.4058 82.2599 47.374 82.0879 47.3818V47.3813ZM88.5025 50.9315H87.7604L85.8018 47.9361C85.7529 47.8618 85.7116 47.7828 85.6786 47.7003H85.6639C85.6841 47.8862 85.6917 48.0732 85.6867 48.2601V50.9305H85.0278V46.8573H85.82L87.7117 49.7797C87.7918 49.901 87.8425 49.9849 87.8638 50.0316H87.8755C87.852 49.8497 87.8425 49.6663 87.8471 49.4829V46.8573H88.5025V50.9315ZM94.4548 50.7612C94.0956 50.9314 93.7004 51.0133 93.3027 51C93.0382 51.0118 92.7742 50.968 92.5279 50.8716C92.2817 50.7751 92.0586 50.6281 91.8732 50.4403C91.6909 50.2425 91.5496 50.0109 91.4574 49.7588C91.3652 49.5067 91.3239 49.239 91.3359 48.971C91.3235 48.6806 91.3707 48.3907 91.4746 48.1191C91.5786 47.8474 91.7372 47.5996 91.9407 47.3909C92.1403 47.1916 92.3789 47.0351 92.6417 46.9311C92.9046 46.8271 93.1861 46.7778 93.4689 46.7863C93.8057 46.7757 94.1412 46.8327 94.4553 46.9541V47.6247C94.1785 47.4617 93.8621 47.3772 93.5404 47.3803C93.3408 47.3724 93.1417 47.4059 92.9559 47.4788C92.7701 47.5517 92.6016 47.6623 92.4612 47.8036C92.3205 47.9558 92.2117 48.1343 92.1412 48.3288C92.0707 48.5233 92.0399 48.7298 92.0507 48.9362C92.0407 49.1315 92.0697 49.3268 92.136 49.5109C92.2023 49.695 92.3046 49.8643 92.4369 50.009C92.5684 50.1423 92.7265 50.2468 92.9012 50.3156C93.0758 50.3844 93.263 50.4161 93.4507 50.4085C93.8059 50.4173 94.1559 50.3223 94.4573 50.1354L94.4548 50.7612ZM98.8348 50.9315H98.0902L97.7212 49.8941H96.1088L95.754 50.9315H95.0104L96.5462 46.8573H97.3121L98.8348 50.9315ZM97.5412 49.3429L96.972 47.7169C96.9478 47.6333 96.9293 47.5481 96.9167 47.462H96.9051C96.8928 47.5486 96.8736 47.6342 96.8478 47.7179L96.2857 49.3429H97.5412ZM101.904 50.9315H99.6336V46.8573H100.313V50.3617H101.902L101.904 50.9315ZM105.001 50.9315H102.73V46.8573H103.411V50.3617H105.001V50.9315Z" fill="#05A1AB"/>
<path d="M37.33 17.6079H47.4489" stroke="#05A1AB" stroke-width="0.5" stroke-miterlimit="10"/>
<path d="M66.8625 22.1421C65.6064 21.345 63.66 20.6724 62.4643 21.1964C56.9935 23.5751 50.7284 22.0368 49.7207 16.1452C53.9567 20.2461 58.8259 21.0125 64.2759 19.9745C67.9457 19.2691 70.5663 21.7577 71.9805 26.8159C70.0584 25.0307 68.6189 23.2476 66.8625 22.1421ZM60.8722 18.3546C62.5413 14.9012 59.2248 12.0604 58.3636 11.5813C56.2686 10.5932 55.1423 11.3334 54.5827 12.075C54.3612 12.3633 54.1963 12.6905 54.0966 13.0394C53.6521 10.5292 55.5641 10.046 55.6974 10.0163C59.1553 9.44742 61.3187 12.0317 61.5772 12.4187C62.4871 14.1086 62.5545 14.0502 62.6209 14.1585C64.5542 16.5458 67.6026 15.4181 67.7364 15.3541C70.4482 14.2855 70.2809 11.4019 70.3134 11.4377C71.4539 13.8562 69.3255 15.7104 69.2352 15.8091C66.5761 17.9606 64.4396 17.6396 63.4613 17.3207C63.0928 17.1998 62.887 17.0788 62.883 17.0894C62.6824 17.4388 62.405 17.7385 62.0714 17.9661C61.7379 18.1938 61.3568 18.3435 60.9568 18.404C60.8858 18.4015 60.8534 18.3848 60.8722 18.3546ZM63.184 11.1494C63.1833 10.6701 63.3257 10.2013 63.5932 9.80251C63.8607 9.40366 64.2412 9.09268 64.6866 8.90892C65.1319 8.72516 65.6221 8.6769 66.0951 8.77025C66.5681 8.86359 67.0026 9.09434 67.3436 9.43328C67.6845 9.77222 67.9167 10.2041 68.0106 10.6743C68.1045 11.1444 68.0559 11.6317 67.8711 12.0744C67.6862 12.5171 67.3734 12.8954 66.9721 13.1612C66.5709 13.4271 66.0993 13.5687 65.6171 13.568C64.9718 13.568 64.353 13.3132 63.8967 12.8596C63.4404 12.406 63.184 11.7909 63.184 11.1494Z" fill="#05A1AB"/>
</g>
<defs>
<clipPath id="clip0_6_328">
<rect width="105" height="51" fill="white"/>
</clipPath>
</defs>
</svg>
