<svg width="24" height="24" viewBox="0 0 24 24" fill="none" xmlns="http://www.w3.org/2000/svg">
<g clip-path="url(#clip0_164_4004)">
<path d="M9.74642 19.1849C9.72076 19.1268 9.71109 19.063 9.71842 18.9999C9.72742 18.9499 9.69542 18.9089 9.61842 18.8769C9.54142 18.8449 9.50942 18.8199 9.50942 18.8019C9.50942 18.7839 9.45742 18.7699 9.35242 18.7609L9.20042 18.7429H4.93642C4.64881 18.7474 4.36336 18.6927 4.09777 18.5822C3.83217 18.4718 3.59209 18.308 3.39242 18.1009C3.18561 17.9011 3.02195 17.661 2.91153 17.3954C2.80111 17.1298 2.74628 16.8445 2.75042 16.5569V6.93591C2.74628 6.64835 2.80111 6.36299 2.91153 6.09743C3.02195 5.83188 3.18561 5.59177 3.39242 5.39192C3.59231 5.18515 3.83243 5.02152 4.09797 4.91111C4.36352 4.80069 4.64886 4.74584 4.93642 4.74992H9.30942C9.41051 4.75557 9.51015 4.7239 9.58942 4.66092C9.66403 4.59002 9.71234 4.49587 9.72642 4.39391C9.74761 4.28801 9.76131 4.18075 9.76742 4.07292C9.77152 3.95221 9.76918 3.83137 9.76042 3.71092C9.75109 3.56492 9.74642 3.47392 9.74642 3.43792C9.74487 3.3225 9.69833 3.21225 9.61671 3.13063C9.53509 3.04901 9.42484 3.00247 9.30942 3.00092H4.93642C4.41863 2.99313 3.90474 3.09151 3.42644 3.28998C2.94814 3.48846 2.51557 3.78282 2.15542 4.15492C1.78315 4.51498 1.4886 4.94751 1.28995 5.42582C1.0913 5.90412 0.992764 6.41806 1.00042 6.93591V16.5569C0.992704 17.0748 1.09121 17.5887 1.28987 18.0671C1.48852 18.5454 1.7831 18.9779 2.15542 19.3379C2.51545 19.7102 2.94797 20.0048 3.42629 20.2035C3.9046 20.4021 4.41855 20.5006 4.93642 20.4929H9.30942C9.41048 20.4984 9.51006 20.4667 9.58942 20.4039C9.66403 20.333 9.71234 20.2389 9.72642 20.1369C9.74761 20.031 9.76131 19.9237 9.76742 19.8159C9.77152 19.6952 9.76918 19.5744 9.76042 19.4539C9.75109 19.3079 9.74642 19.2182 9.74642 19.1849Z" fill="#05A1AB"/>
<path d="M22.169 11.131L14.735 3.69695C14.6127 3.57606 14.4575 3.49391 14.2887 3.46075C14.1199 3.42759 13.9451 3.44491 13.7862 3.51052C13.6272 3.57614 13.4911 3.68716 13.3948 3.82969C13.2986 3.97223 13.2465 4.13997 13.245 4.31195V8.24795H7.12305C6.89195 8.25106 6.67119 8.34424 6.50776 8.50767C6.34433 8.67109 6.25115 8.89185 6.24805 9.12295V14.371C6.25115 14.6021 6.34433 14.8228 6.50776 14.9862C6.67119 15.1497 6.89195 15.2428 7.12305 15.246H13.245V19.181C13.2441 19.354 13.2948 19.5234 13.3907 19.6675C13.4865 19.8116 13.6231 19.9238 13.7831 19.9898C13.9431 20.0559 14.1191 20.0727 14.2887 20.0381C14.4582 20.0036 14.6136 19.9193 14.735 19.796L22.169 12.362C22.2512 12.282 22.3166 12.1864 22.3612 12.0807C22.4058 11.9751 22.4288 11.8616 22.4288 11.747C22.4288 11.6323 22.4058 11.5188 22.3612 11.4132C22.3166 11.3075 22.2512 11.2119 22.169 11.132V11.131Z" fill="#05A1AB"/>
</g>
<defs>
<clipPath id="clip0_164_4004">
<rect width="21.428" height="17.492" fill="white" transform="translate(1 3)"/>
</clipPath>
</defs>
</svg>
