<svg width="16" height="16" viewBox="0 0 16 16" fill="none" xmlns="http://www.w3.org/2000/svg">
<path d="M9.66746 3.28516L1.86746 11.0852C1.82813 11.1247 1.80015 11.1741 1.78646 11.2282L0.919461 14.7022C0.908002 14.7476 0.907115 14.7951 0.916866 14.841C0.926617 14.8869 0.946748 14.9299 0.975713 14.9668C1.00468 15.0037 1.04171 15.0334 1.08396 15.0538C1.12621 15.0741 1.17257 15.0845 1.21946 15.0842C1.2444 15.0842 1.26925 15.0812 1.29346 15.0752L4.76246 14.2122C4.8166 14.1987 4.86604 14.1707 4.90546 14.1312L12.7055 6.33115L9.66746 3.28516Z" fill="white"/>
<path d="M14.6421 2.22006L13.7731 1.35106C13.4805 1.07182 13.0916 0.916016 12.6871 0.916016C12.2826 0.916016 11.8937 1.07182 11.6011 1.35106L10.5371 2.41506L13.5781 5.45606L14.6421 4.39206C14.9301 4.10402 15.0919 3.71338 15.0919 3.30606C15.0919 2.89875 14.9301 2.50811 14.6421 2.22006Z" fill="white"/>
</svg>
