<svg width="17" height="17" viewBox="0 0 17 17" fill="none" xmlns="http://www.w3.org/2000/svg">
<path d="M10.6391 3.53345L1.9622 12.2112C1.91858 12.255 1.8875 12.3097 1.8722 12.3696L0.910105 16.2297C0.897514 16.2801 0.896564 16.3326 0.907327 16.3833C0.91809 16.4341 0.940282 16.4817 0.972216 16.5226C1.00415 16.5634 1.04498 16.5965 1.09161 16.6192C1.13824 16.6419 1.18944 16.6537 1.2413 16.6536C1.26921 16.6538 1.29702 16.6504 1.3241 16.6437L5.18421 15.6816C5.24419 15.6666 5.29894 15.6355 5.3426 15.5916L14.0204 6.91475L10.6391 3.53345Z" fill="#05A1AB"/>
<path d="M16.1705 2.34972L15.2048 1.38402C14.8795 1.07329 14.4469 0.899902 13.997 0.899902C13.5471 0.899902 13.1146 1.07329 12.7892 1.38402L11.6057 2.56842L14.987 5.94972L16.1705 4.76532C16.4904 4.44474 16.67 4.01038 16.67 3.55752C16.67 3.10466 16.4904 2.6703 16.1705 2.34972Z" fill="#05A1AB"/>
</svg>
