<svg width="18" height="18" viewBox="0 0 18 18" fill="none" xmlns="http://www.w3.org/2000/svg">
<path d="M6.17582 8.39656C6.8387 8.39656 7.4867 8.19999 8.03787 7.83171C8.58904 7.46343 9.01862 6.93999 9.27229 6.32756C9.52597 5.71514 9.59234 5.04124 9.46302 4.39109C9.33369 3.74095 9.01449 3.14375 8.54576 2.67502C8.07703 2.20629 7.47983 1.88708 6.82968 1.75776C6.17954 1.62844 5.50564 1.69481 4.89322 1.94849C4.28079 2.20216 3.75735 2.63174 3.38907 3.18291C3.02079 3.73408 2.82422 4.38208 2.82422 5.04496C2.82517 5.93357 3.17859 6.7855 3.80693 7.41385C4.43527 8.04219 5.28721 8.39561 6.17582 8.39656Z" fill="#43686A"/>
<path d="M7.983 14.6482V11.824C7.98345 10.8153 8.38077 9.84739 9.0891 9.12935C8.1476 8.63349 7.09433 8.38829 6.03063 8.41735C4.96693 8.44641 3.92862 8.74874 3.01559 9.29526C2.10256 9.84177 1.34556 10.6141 0.817416 11.5379C0.289275 12.4616 0.00777402 13.5058 0 14.5698C0 14.5698 0 16.3392 0 16.3392C0.000238461 16.7786 0.174881 17.1999 0.485558 17.5106C0.796236 17.8213 1.21754 17.9959 1.6569 17.9962H9.5319C9.04671 17.5835 8.65692 17.0704 8.38949 16.4924C8.12206 15.9143 7.98336 15.2851 7.983 14.6482Z" fill="#43686A"/>
<path d="M15.741 9.08709V2.22189C15.7408 2.08209 15.6851 1.94807 15.5862 1.84929L13.8915 0.154594C13.8425 0.105584 13.7843 0.0667048 13.7203 0.0401789C13.6563 0.013653 13.5877 0 13.5184 0C13.4491 0 13.3805 0.013653 13.3165 0.0401789C13.2525 0.0667048 13.1943 0.105584 13.1454 0.154594L11.4507 1.84929C11.4017 1.89827 11.3628 1.95643 11.3362 2.02044C11.3097 2.08445 11.2961 2.15306 11.2961 2.22234C11.2961 2.29163 11.3097 2.36024 11.3362 2.42425C11.3628 2.48826 11.4017 2.54642 11.4507 2.59539L11.925 3.06969L11.4507 3.54399C11.4017 3.59297 11.3628 3.65113 11.3362 3.71514C11.3097 3.77915 11.2961 3.84776 11.2961 3.91704C11.2961 3.98633 11.3097 4.05494 11.3362 4.11895C11.3628 4.18296 11.4017 4.24112 11.4507 4.29009L11.925 4.76439L11.4507 5.23869C11.4017 5.28767 11.3628 5.34583 11.3362 5.40984C11.3097 5.47385 11.2961 5.54246 11.2961 5.61174C11.2961 5.68103 11.3097 5.74964 11.3362 5.81365C11.3628 5.87766 11.4017 5.93582 11.4507 5.98479L11.925 6.45909L11.4507 6.93339C11.3517 7.03217 11.296 7.16619 11.2959 7.30599V9.08799C10.6603 9.21122 10.0873 9.55166 9.67514 10.051C9.263 10.5503 9.03735 11.1774 9.03687 11.8249V14.6491C9.03782 15.5377 9.39125 16.3896 10.0196 17.018C10.6479 17.6463 11.4999 17.9997 12.3885 18.0007H14.6475C15.5361 17.9997 16.388 17.6463 17.0163 17.018C17.6447 16.3896 17.9981 15.5377 17.9991 14.6491V11.824C17.9986 11.1765 17.7729 10.5494 17.3608 10.0501C16.9487 9.55076 16.3757 9.21032 15.7401 9.08709H15.741ZM13.5189 15.2503C13.2875 15.2503 13.0612 15.1817 12.8688 15.0531C12.6764 14.9246 12.5265 14.7418 12.4379 14.528C12.3494 14.3142 12.3262 14.079 12.3714 13.852C12.4165 13.6251 12.5279 13.4166 12.6915 13.253C12.8552 13.0894 13.0636 12.9779 13.2906 12.9328C13.5176 12.8876 13.7528 12.9108 13.9666 12.9994C14.1804 13.0879 14.3631 13.2379 14.4917 13.4303C14.6202 13.6227 14.6889 13.8489 14.6889 14.0803C14.6889 14.3906 14.5656 14.6882 14.3462 14.9076C14.1268 15.127 13.8292 15.2503 13.5189 15.2503Z" fill="#43686A"/>
</svg>
