<svg width="10" height="16" viewBox="0 0 10 16" fill="none" xmlns="http://www.w3.org/2000/svg">
<path fill-rule="evenodd" clip-rule="evenodd" d="M9.06013 6.93991C9.34103 7.22116 9.49881 7.60241 9.49881 7.99991C9.49881 8.39741 9.34103 8.77866 9.06013 9.05991L3.40413 14.7179C3.12274 14.9992 2.74114 15.1571 2.34328 15.157C1.94542 15.1569 1.5639 14.9988 1.28263 14.7174C1.00137 14.436 0.843412 14.0544 0.843506 13.6566C0.8436 13.2587 1.00174 12.8772 1.28313 12.5959L5.87913 7.99991L1.28313 3.40391C1.00976 3.12114 0.858387 2.7423 0.861618 2.34901C0.864849 1.95571 1.02242 1.57941 1.30041 1.30117C1.57839 1.02292 1.95454 0.864993 2.34783 0.861391C2.74113 0.857789 3.1201 1.0088 3.40313 1.28191L9.06113 6.93891L9.06013 6.93991Z" fill="#05A1AB"/>
</svg>
