<svg width="24" height="24" viewBox="0 0 24 24" fill="none" xmlns="http://www.w3.org/2000/svg">
<path d="M19.3846 0H4.61538C2.06638 0 0 2.06638 0 4.61538V19.3846C0 21.9336 2.06638 24 4.61538 24H19.3846C21.9336 24 24 21.9336 24 19.3846V4.61538C24 2.06638 21.9336 0 19.3846 0Z" fill="white"/>
<g clip-path="url(#clip0_86_214)">
<path d="M11.5379 4.61548C10.7221 4.61548 9.93971 4.93256 9.36252 5.49708C8.78532 6.06159 8.46057 6.82737 8.45959 7.62619V9.19076C8.45959 9.98925 8.78353 10.755 9.36014 11.3197C9.93676 11.8843 10.7188 12.2015 11.5343 12.2015C12.3497 12.2015 13.1318 11.8843 13.7084 11.3197C14.285 10.755 14.609 9.98925 14.609 9.19076V7.62619C14.608 6.82861 14.2842 6.06392 13.7086 5.49961C13.133 4.9353 12.3525 4.61738 11.5379 4.61548Z" fill="#05A1AB"/>
<path d="M18.4432 16.4052C17.427 14.752 15.8178 13.5291 13.9301 12.9755C13.9085 12.9691 13.8856 12.9685 13.8637 12.9737C13.8418 12.9789 13.8217 12.9897 13.8055 13.0051C13.1137 13.6358 12.354 14.1911 11.5398 14.6612C10.7353 14.1749 9.97564 13.6208 9.26952 13.0051C9.25334 12.9897 9.23325 12.9789 9.21134 12.9737C9.18943 12.9685 9.1665 12.9691 9.14492 12.9755C7.25745 13.5292 5.64861 14.752 4.63276 16.4052C4.62145 16.4236 4.61548 16.4447 4.61548 16.4662C4.61548 16.4877 4.62145 16.5088 4.63276 16.5272C5.35813 17.6825 6.3737 18.6366 7.5826 19.2984C8.79151 19.9602 10.1534 20.3077 11.5384 20.3077C12.9234 20.3077 14.2854 19.9602 15.4943 19.2984C16.7032 18.6366 17.7187 17.6825 18.4441 16.5272C18.4553 16.5087 18.4611 16.4875 18.4609 16.466C18.4608 16.4445 18.4546 16.4235 18.4432 16.4052ZM15.7964 17.3023C15.7938 17.3351 15.7783 17.3657 15.7532 17.3876C15.7281 17.4095 15.6953 17.4211 15.6617 17.4198H14.8133C14.7779 17.4195 14.7436 17.432 14.7169 17.4548C14.6902 17.4776 14.673 17.5092 14.6685 17.5436V18.3869C14.6704 18.4016 14.669 18.4165 14.6645 18.4306C14.6599 18.4447 14.6524 18.4577 14.6423 18.4687C14.6323 18.4798 14.6199 18.4886 14.6061 18.4946C14.5923 18.5006 14.5774 18.5036 14.5623 18.5035H13.8009C13.7674 18.505 13.7346 18.4937 13.7095 18.4719C13.6843 18.4502 13.6688 18.4196 13.6662 18.3869V17.5436C13.6671 17.5279 13.6648 17.5123 13.6593 17.4975C13.6539 17.4828 13.6456 17.4692 13.6347 17.4577C13.6239 17.4461 13.6108 17.4369 13.5962 17.4304C13.5816 17.4239 13.5659 17.4203 13.5499 17.4198H12.6649C12.6487 17.4203 12.6325 17.4176 12.6174 17.412C12.6023 17.4063 12.5884 17.3978 12.5767 17.3868C12.5649 17.3759 12.5555 17.3628 12.5489 17.3483C12.5423 17.3338 12.5388 17.3182 12.5384 17.3023V16.5765C12.5387 16.5605 12.5421 16.5447 12.5486 16.53C12.5551 16.5153 12.5645 16.5019 12.5762 16.4908C12.588 16.4796 12.6018 16.4708 12.617 16.4649C12.6323 16.459 12.6485 16.4561 12.6649 16.4563H13.5499C13.5658 16.4562 13.5815 16.4529 13.596 16.4467C13.6106 16.4405 13.6237 16.4315 13.6346 16.4202C13.6454 16.4088 13.6539 16.3955 13.6593 16.3809C13.6648 16.3663 13.6671 16.3507 13.6662 16.3352V15.491C13.6688 15.4581 13.6843 15.4274 13.7093 15.4054C13.7344 15.3833 13.7672 15.3716 13.8009 15.3726H14.554C14.5697 15.3724 14.5852 15.3754 14.5995 15.3814C14.6139 15.3874 14.6269 15.3962 14.6377 15.4073C14.6484 15.4185 14.6567 15.4316 14.662 15.446C14.6673 15.4604 14.6696 15.4757 14.6685 15.491V16.3379C14.6713 16.371 14.6871 16.4018 14.7125 16.4239C14.738 16.446 14.7711 16.4576 14.8051 16.4563H15.6617C15.6959 16.4562 15.7288 16.4689 15.7538 16.4917C15.7788 16.5145 15.794 16.5458 15.7964 16.5792V17.3023Z" fill="#05A1AB"/>
</g>
<defs>
<clipPath id="clip0_86_214">
<rect width="13.8462" height="15.6923" fill="white" transform="translate(4.61536 4.61548)"/>
</clipPath>
</defs>
</svg>
