<svg width="24" height="24" viewBox="0 0 24 24" fill="none" xmlns="http://www.w3.org/2000/svg">
<g clip-path="url(#clip0_86_997)">
<path d="M11.9994 2C10.9389 2 9.92171 2.38392 9.17136 3.06743C8.421 3.75093 7.99882 4.67812 7.99756 5.64532V7.53967C7.99756 8.50647 8.41867 9.43368 9.16827 10.1173C9.91787 10.8009 10.9346 11.185 11.9947 11.185C13.0547 11.185 14.0714 10.8009 14.821 10.1173C15.5706 9.43368 15.9917 8.50647 15.9917 7.53967V5.64532C15.9905 4.67963 15.5696 3.75375 14.8213 3.07049C14.073 2.38723 13.0583 2.0023 11.9994 2Z" fill="white"/>
<path d="M20.9761 16.275C19.6551 14.2733 17.5632 12.7927 15.1091 12.1224C15.0811 12.1146 15.0513 12.1139 15.0228 12.1202C14.9943 12.1265 14.9682 12.1396 14.9472 12.1582C14.0478 12.9218 13.0602 13.5942 12.0017 14.1634C10.9559 13.5746 9.96833 12.9036 9.05038 12.1582C9.02934 12.1396 9.00322 12.1265 8.97474 12.1202C8.94626 12.1139 8.91645 12.1146 8.8884 12.1224C6.43468 12.7927 4.34319 14.2734 3.02259 16.275C3.00789 16.2973 3.00012 16.3228 3.00012 16.3488C3.00012 16.3748 3.00789 16.4004 3.02259 16.4227C3.96556 17.8215 5.28581 18.9767 6.85738 19.778C8.42896 20.5793 10.1994 21.0001 12 21.0001C13.8005 21.0001 15.571 20.5793 17.1425 19.778C18.7141 18.9767 20.0344 17.8215 20.9773 16.4227C20.9919 16.4003 20.9994 16.3747 20.9992 16.3487C20.999 16.3226 20.991 16.2972 20.9761 16.275ZM17.5353 17.3612C17.5319 17.4009 17.5118 17.438 17.4792 17.4645C17.4465 17.491 17.4039 17.505 17.3602 17.5034H16.2573C16.2112 17.5031 16.1667 17.5182 16.132 17.5458C16.0973 17.5734 16.0749 17.6117 16.0691 17.6533V18.6744C16.0715 18.6922 16.0697 18.7102 16.0638 18.7273C16.0579 18.7444 16.0481 18.7601 16.035 18.7735C16.022 18.7869 16.0059 18.7975 15.988 18.8048C15.97 18.8121 15.9506 18.8157 15.9309 18.8156H14.9412C14.8976 18.8174 14.855 18.8037 14.8223 18.7773C14.7896 18.751 14.7695 18.7141 14.7661 18.6744V17.6533C14.7672 17.6344 14.7642 17.6154 14.7572 17.5976C14.7501 17.5797 14.7392 17.5633 14.7251 17.5493C14.711 17.5354 14.694 17.5241 14.6751 17.5162C14.6561 17.5084 14.6357 17.504 14.6149 17.5034H13.4643C13.4433 17.504 13.4223 17.5008 13.4026 17.494C13.3829 17.4871 13.3649 17.4768 13.3496 17.4635C13.3344 17.4503 13.3221 17.4345 13.3136 17.4169C13.3051 17.3993 13.3004 17.3804 13.3 17.3612V16.4824C13.3003 16.463 13.3048 16.4439 13.3132 16.4261C13.3216 16.4082 13.3338 16.3921 13.3491 16.3786C13.3643 16.3651 13.3824 16.3545 13.4022 16.3473C13.4219 16.3401 13.4431 16.3366 13.4643 16.3369H14.6149C14.6355 16.3368 14.6559 16.3328 14.6748 16.3253C14.6937 16.3178 14.7108 16.3068 14.7249 16.2931C14.7391 16.2794 14.75 16.2632 14.7571 16.2455C14.7642 16.2278 14.7673 16.209 14.7661 16.1902V15.1681C14.7695 15.1283 14.7895 15.0911 14.8221 15.0644C14.8548 15.0377 14.8974 15.0235 14.9412 15.0247H15.9202C15.9405 15.0245 15.9607 15.0282 15.9794 15.0354C15.9981 15.0426 16.015 15.0533 16.029 15.0668C16.0429 15.0803 16.0537 15.0962 16.0606 15.1136C16.0675 15.1311 16.0704 15.1496 16.0691 15.1681V16.1935C16.0728 16.2336 16.0932 16.2709 16.1263 16.2976C16.1594 16.3243 16.2024 16.3384 16.2466 16.3369H17.3602C17.4046 16.3368 17.4474 16.3521 17.4799 16.3797C17.5125 16.4074 17.5322 16.4453 17.5353 16.4857V17.3612Z" fill="white"/>
</g>
<defs>
<clipPath id="clip0_86_997">
<rect width="18" height="19" fill="white" transform="translate(3 2)"/>
</clipPath>
</defs>
</svg>
