<svg width="20" height="20" viewBox="0 0 20 20" fill="none" xmlns="http://www.w3.org/2000/svg">
<path d="M8.96598 2.06181e-05C7.53192 -0.00305373 6.11803 0.337724 4.84285 0.993826C3.56768 1.64993 2.4684 2.6022 1.6372 3.7708C0.80599 4.9394 0.267083 6.29029 0.065664 7.71013C-0.135755 9.12998 0.00618663 10.5774 0.479586 11.9311C0.952985 13.2848 1.74404 14.5052 2.78643 15.4901C3.82881 16.4749 5.09214 17.1955 6.47047 17.5914C7.8488 17.9873 9.30197 18.047 10.7081 17.7654C12.1143 17.4838 13.4324 16.8691 14.552 15.973L18.287 19.706C18.4774 19.8765 18.7258 19.9675 18.9812 19.9606C19.2367 19.9536 19.4797 19.8491 19.6606 19.6685C19.8414 19.488 19.9462 19.245 19.9536 18.9896C19.9609 18.7342 19.8701 18.4856 19.7 18.295L15.965 14.561C17.022 13.2433 17.6847 11.6537 17.8768 9.97542C18.0689 8.29718 17.7825 6.5988 17.0505 5.07641C16.3186 3.55401 15.1711 2.26964 13.7404 1.37157C12.3097 0.473508 10.6542 -0.00163254 8.96498 0.000997181L8.96598 2.06181e-05ZM8.96598 1.993C10.3462 1.99241 11.6955 2.40118 12.8433 3.16759C13.9911 3.93401 14.8859 5.02363 15.4143 6.29864C15.9428 7.57364 16.0812 8.97672 15.8121 10.3304C15.5429 11.6841 14.8784 12.9276 13.9025 13.9035C12.9265 14.8794 11.6831 15.544 10.3294 15.8131C8.9757 16.0822 7.57261 15.9438 6.29761 15.4153C5.02261 14.8869 3.93298 13.9922 3.16656 12.8444C2.40015 11.6965 1.99138 10.3472 1.99198 8.967C1.98973 8.05053 2.16859 7.14266 2.51827 6.29552C2.86796 5.44839 3.38157 4.6787 4.02961 4.03066C4.67766 3.38262 5.44736 2.86899 6.29449 2.51931C7.14163 2.16963 8.04951 1.99076 8.96598 1.993Z" fill="#93AFB1"/>
</svg>
