<svg width="24" height="24" viewBox="0 0 24 24" fill="none" xmlns="http://www.w3.org/2000/svg">
<path d="M19.3846 0H4.61538C2.06638 0 0 2.06638 0 4.61538V19.3846C0 21.9336 2.06638 24 4.61538 24H19.3846C21.9336 24 24 21.9336 24 19.3846V4.61538C24 2.06638 21.9336 0 19.3846 0Z" fill="white"/>
<g clip-path="url(#clip0_86_194)">
<path d="M12.4864 14.5289C12.6154 14.5289 12.7392 14.4764 12.8304 14.383C12.9216 14.2896 12.9729 14.1629 12.9729 14.0308V12.0374C12.9729 11.9053 12.9216 11.7786 12.8304 11.6852C12.7392 11.5918 12.6154 11.5393 12.4864 11.5393H11.5126C11.3836 11.5393 11.2598 11.5918 11.1686 11.6852C11.0774 11.7786 11.0261 11.9053 11.0261 12.0374V14.0308C11.0261 14.1629 11.0774 14.2896 11.1686 14.383C11.2598 14.4764 11.3836 14.5289 11.5126 14.5289H12.4864Z" fill="#05A1AB"/>
<path d="M18.8473 6.05516H15.4079V5.55705C15.4074 5.16064 15.2534 4.78061 14.9797 4.5003C14.7059 4.21999 14.3348 4.06228 13.9476 4.06177H10.0522C9.66508 4.06228 9.29394 4.21999 9.02018 4.5003C8.74643 4.78061 8.59242 5.16064 8.59191 5.55705V6.05516H5.15255C4.7654 6.05567 4.39426 6.21338 4.12051 6.49369C3.84676 6.774 3.69274 7.15403 3.69224 7.55045C3.67694 8.41707 3.79461 9.28078 4.04093 10.11C4.24257 10.7872 4.59925 11.4053 5.08129 11.9128C5.46058 12.2893 5.91071 12.5829 6.4043 12.7758C6.8979 12.9686 7.42464 13.0566 7.9525 13.0345H10.0532V12.0392C10.0537 11.6428 10.2077 11.2628 10.4814 10.9825C10.7552 10.7022 11.1263 10.5445 11.5135 10.5439H12.4864C12.8737 10.5442 13.2451 10.7018 13.519 10.9821C13.793 11.2625 13.9471 11.6426 13.9476 12.0392V13.0364H15.0289C15.998 12.9955 17.5827 13.2971 18.9186 11.9351C19.4014 11.4275 19.7582 10.8086 19.9589 10.1305C20.2056 9.29529 20.3233 8.42576 20.3076 7.55337C20.3079 7.15644 20.1542 6.77566 19.8804 6.49472C19.6065 6.21378 19.235 6.05568 18.8473 6.05516ZM9.56577 5.55705C9.56602 5.42503 9.61735 5.29848 9.70853 5.20513C9.7997 5.11177 9.92328 5.05921 10.0522 5.05895H13.9476C14.0766 5.05921 14.2002 5.11177 14.2913 5.20513C14.3825 5.29848 14.4338 5.42503 14.4341 5.55705V6.05516H9.56577V5.55705Z" fill="#05A1AB"/>
<path d="M15.0422 14.0307H13.9477C13.9472 14.4271 13.7931 14.8071 13.5194 15.0874C13.2456 15.3677 12.8745 15.5254 12.4874 15.526H11.5135C11.1264 15.5254 10.7552 15.3677 10.4815 15.0874C10.2077 14.8071 10.0537 14.4271 10.0532 14.0307H7.95632C7.29979 14.0549 6.64531 13.9422 6.03266 13.6993C5.42 13.4565 4.86197 13.0886 4.39249 12.6181C4.12488 12.3406 3.88988 12.0321 3.69226 11.6987L3.69226 18.5165C3.69226 18.6486 3.74351 18.7753 3.83474 18.8687C3.92597 18.9622 4.0497 19.0146 4.17871 19.0146H19.8212C19.9502 19.0146 20.0739 18.9622 20.1652 18.8687C20.2564 18.7753 20.3076 18.6486 20.3076 18.5165V11.7192C20.1098 12.0532 19.8741 12.3621 19.6055 12.6395C18.0702 14.2038 16.4341 13.9635 15.0422 14.0307Z" fill="#05A1AB"/>
</g>
<defs>
<clipPath id="clip0_86_194">
<rect width="16.6154" height="14.9538" fill="white" transform="translate(3.69226 4.06177)"/>
</clipPath>
</defs>
</svg>
