<svg width="24" height="24" viewBox="0 0 24 24" fill="none" xmlns="http://www.w3.org/2000/svg">
<path d="M19.3846 0H4.61538C2.06638 0 0 2.06638 0 4.61538V19.3846C0 21.9336 2.06638 24 4.61538 24H19.3846C21.9336 24 24 21.9336 24 19.3846V4.61538C24 2.06638 21.9336 0 19.3846 0Z" fill="white"/>
<g clip-path="url(#clip0_86_211)">
<path d="M11.5953 19.839C11.4706 19.8392 11.3512 19.7915 11.26 19.7065C10.209 18.739 9.24465 17.6816 8.37807 16.546C7.08576 14.8457 5.53943 12.295 5.53943 9.7888C5.53943 8.18281 6.17696 6.64255 7.31257 5.50695C8.44817 4.37134 9.98843 3.73291 11.5944 3.73291C13.2004 3.73291 14.7407 4.37134 15.8763 5.50695C17.0119 6.64255 17.6503 8.18281 17.6503 9.7888C17.6503 14.5537 12.1634 19.5015 11.927 19.7101C11.8362 19.7923 11.7178 19.8386 11.5953 19.839ZM9.27951 9.43003C9.09266 9.43671 8.91625 9.51542 8.78642 9.64998C8.6566 9.78453 8.5836 9.9642 8.5836 10.1512C8.5836 10.3382 8.6566 10.5178 8.78642 10.6524C8.91625 10.7869 9.09266 10.8665 9.27951 10.8732H10.8733V12.4688C10.8799 12.6556 10.9587 12.833 11.0932 12.9628C11.2278 13.0926 11.4074 13.1647 11.5944 13.1647C11.7814 13.1647 11.9611 13.0926 12.0956 12.9628C12.2302 12.833 12.3089 12.6556 12.3156 12.4688V10.8732H13.9084C14.0953 10.8665 14.2717 10.7869 14.4015 10.6524C14.5313 10.5178 14.6043 10.3382 14.6043 10.1512C14.6043 9.9642 14.5313 9.78453 14.4015 9.64998C14.2717 9.51542 14.0953 9.43671 13.9084 9.43003H12.3156V7.83808C12.3089 7.65122 12.2302 7.47392 12.0956 7.34409C11.9611 7.21426 11.7814 7.14216 11.5944 7.14216C11.4074 7.14216 11.2278 7.21426 11.0932 7.34409C10.9587 7.47392 10.8799 7.65122 10.8733 7.83808V9.43003H9.27951Z" fill="#05A1AB"/>
</g>
<defs>
<clipPath id="clip0_86_211">
<rect width="12.1108" height="16.1465" fill="white" transform="translate(5.53845 3.69238)"/>
</clipPath>
</defs>
</svg>
