<svg width="24" height="24" viewBox="0 0 24 24" fill="none" xmlns="http://www.w3.org/2000/svg">
<g clip-path="url(#clip0_86_993)">
<path d="M12.5021 23.0001C12.327 23.0005 12.1593 22.9355 12.0313 22.8196C10.5561 21.5014 9.2024 20.0606 7.98597 18.5134C6.17195 16.1967 4.00134 12.7212 4.00134 9.30649C4.00134 7.11829 4.89625 5.01965 6.49031 3.47235C8.08437 1.92506 10.2464 1.05518 12.5008 1.05518C14.7551 1.05518 16.9172 1.92506 18.5113 3.47235C20.1053 5.01965 21.0015 7.11829 21.0015 9.30649C21.0015 15.7988 13.2994 22.5403 12.9677 22.8245C12.8402 22.9366 12.674 22.9997 12.5021 23.0001ZM9.25133 8.81765C8.98904 8.82676 8.74142 8.93401 8.55918 9.11734C8.37694 9.30068 8.27447 9.54548 8.27447 9.80025C8.27447 10.055 8.37694 10.2998 8.55918 10.4831C8.74142 10.6665 8.98904 10.775 9.25133 10.7841H11.4885V12.9581C11.4979 13.2126 11.6084 13.4542 11.7972 13.6311C11.9861 13.808 12.2383 13.9063 12.5008 13.9063C12.7632 13.9063 13.0155 13.808 13.2043 13.6311C13.3932 13.4542 13.5037 13.2126 13.5131 12.9581V10.7841H15.749C16.0113 10.775 16.2589 10.6665 16.4411 10.4831C16.6234 10.2998 16.7258 10.055 16.7258 9.80025C16.7258 9.54548 16.6234 9.30068 16.4411 9.11734C16.2589 8.93401 16.0113 8.82676 15.749 8.81765H13.5131V6.64858C13.5037 6.39398 13.3932 6.1524 13.2043 5.97551C13.0155 5.79861 12.7632 5.70038 12.5008 5.70038C12.2383 5.70038 11.9861 5.79861 11.7972 5.97551C11.6084 6.1524 11.4979 6.39398 11.4885 6.64858V8.81765H9.25133Z" fill="white"/>
</g>
<defs>
<clipPath id="clip0_86_993">
<rect width="17" height="22" fill="white" transform="translate(4 1)"/>
</clipPath>
</defs>
</svg>
