<svg width="24" height="24" viewBox="0 0 24 24" fill="none" xmlns="http://www.w3.org/2000/svg">
<path d="M19.3846 0H4.61538C2.06638 0 0 2.06638 0 4.61538V19.3846C0 21.9336 2.06638 24 4.61538 24H19.3846C21.9336 24 24 21.9336 24 19.3846V4.61538C24 2.06638 21.9336 0 19.3846 0Z" fill="white"/>
<path d="M8.73754 20.3073H9.52128H14.5739H15.3567C17.6947 20.3073 19.4808 20.1876 19.4808 17.7348C19.4813 16.507 19.0247 15.3233 18.2007 14.4159C17.3767 13.5084 16.2445 12.9426 15.0264 12.8293C15.0065 13.727 12.0485 15.9442 12.0485 15.9442C12.0485 15.9442 9.08966 13.7289 9.06978 12.8293C7.85192 12.9425 6.72008 13.5081 5.89608 14.4152C5.07208 15.3222 4.61534 16.5055 4.61536 17.7329C4.61536 20.1857 6.40148 20.3054 8.73849 20.3054L8.73754 20.3073ZM14.2549 16.9578C14.2571 16.9206 14.2739 16.8859 14.3016 16.8611C14.3293 16.8364 14.3656 16.8237 14.4026 16.8257H15.2015V16.024C15.1994 15.9868 15.2121 15.9504 15.2367 15.9226C15.2614 15.8948 15.296 15.878 15.333 15.8758H16.1215C16.1585 15.878 16.1931 15.8948 16.2178 15.9226C16.2425 15.9504 16.2551 15.9868 16.2531 16.024V16.8257H17.052C17.0888 16.8239 17.1249 16.8368 17.1524 16.8615C17.1798 16.8862 17.1965 16.9208 17.1987 16.9578V17.7491C17.1965 17.786 17.1798 17.8206 17.1524 17.8454C17.1249 17.8701 17.0888 17.8829 17.052 17.8811H16.2531V18.6829C16.2549 18.7198 16.2421 18.7561 16.2175 18.7836C16.1928 18.8112 16.1583 18.8279 16.1215 18.8301H15.333C15.2962 18.8279 15.2617 18.8112 15.2371 18.7836C15.2125 18.7561 15.1997 18.7198 15.2015 18.6829V17.8811H14.4026C14.3656 17.8832 14.3293 17.8705 14.3016 17.8457C14.2739 17.821 14.2571 17.7862 14.2549 17.7491V16.9578Z" fill="#05A1AB"/>
<path d="M12.0486 13.4763C14.308 13.4763 16.1395 10.066 16.1395 7.79849C16.1395 6.70948 15.7085 5.66508 14.9412 4.89503C14.1739 4.12499 13.1332 3.69238 12.0481 3.69238C10.963 3.69238 9.92231 4.12499 9.15502 4.89503C8.38772 5.66508 7.95667 6.70948 7.95667 7.79849C7.95761 10.065 9.78538 13.4763 12.0486 13.4763Z" fill="#05A1AB"/>
</svg>
