<svg width="24" height="24" viewBox="0 0 24 24" fill="none" xmlns="http://www.w3.org/2000/svg">
<g clip-path="url(#clip0_86_978)">
<path fill-rule="evenodd" clip-rule="evenodd" d="M9.91517 11.2859L8.33644 17.3679C8.26207 17.6538 8.28135 17.9549 8.39165 18.2298C8.50195 18.5048 8.69786 18.7401 8.9525 18.9036L11.177 20.3317C11.4206 20.4882 11.7068 20.5717 11.9996 20.5717C12.2924 20.5717 12.5786 20.4882 12.8222 20.3317L15.0466 18.9036C15.3013 18.7401 15.4972 18.5048 15.6075 18.2298C15.7178 17.9549 15.7371 17.6538 15.6627 17.3679L14.084 11.2859H14.6953C16.2044 11.2859 17.6689 11.7787 18.8498 12.6837C20.0308 13.5887 20.8585 14.8526 21.1977 16.2691L21.942 19.3758C22.0182 19.6903 22.0196 20.0172 21.9462 20.3323C21.8728 20.6474 21.7264 20.9424 21.5179 21.1953C21.3095 21.4482 21.0444 21.6524 20.7425 21.7928C20.4406 21.9331 20.1097 22.0059 19.7745 22.0057H4.22463C3.88941 22.0059 3.55849 21.9331 3.25659 21.7928C2.95469 21.6524 2.68962 21.4482 2.48119 21.1953C2.27276 20.9424 2.12636 20.6474 2.05293 20.3323C1.9795 20.0172 1.98094 19.6903 2.05714 19.3758L2.8014 16.2691C3.14068 14.8526 3.96834 13.5887 5.1493 12.6837C6.33026 11.7787 7.79478 11.2859 9.30386 11.2859H9.91517ZM12.5563 11.2859H11.444L9.7751 17.7144L12.0008 19.1425L14.2252 17.7144C14.1493 17.4216 13.9641 17.8813 14.2252 17.7144L12.5563 11.2859ZM12.0008 2C11.1208 2 10.2607 2.25135 9.52906 2.72226C8.79744 3.19317 8.22721 3.86249 7.89048 4.64559C7.55375 5.42869 7.46565 6.29039 7.63731 7.12172C7.80897 7.95305 8.23269 8.71668 8.85489 9.31603C9.47708 9.91539 10.2698 10.3236 11.1328 10.4889C11.9958 10.6543 12.8904 10.5694 13.7033 10.245C14.5162 9.92067 15.211 9.37137 15.6999 8.6666C16.1888 7.96183 16.4497 7.13325 16.4497 6.28563C16.4491 5.1492 15.9801 4.05948 15.1459 3.2559C14.3117 2.45232 13.1805 2.00061 12.0008 2Z" fill="white"/>
</g>
<defs>
<clipPath id="clip0_86_978">
<rect width="20" height="20" fill="white" transform="translate(2 2)"/>
</clipPath>
</defs>
</svg>
