<svg width="18" height="16" viewBox="0 0 18 16" fill="none" xmlns="http://www.w3.org/2000/svg">
<path fill-rule="evenodd" clip-rule="evenodd" d="M17.2427 8.35488C17.3925 8.48566 17.4843 8.67057 17.4978 8.86898C17.5113 9.06738 17.4454 9.26302 17.3147 9.41288L12.2237 15.2529C12.1231 15.3682 11.9895 15.45 11.841 15.4872C11.6926 15.5244 11.5362 15.5153 11.3931 15.4611C11.2499 15.4068 11.1268 15.3101 11.0402 15.1839C10.9536 15.0577 10.9077 14.908 10.9087 14.7549V0.754883C10.9087 0.55597 10.9877 0.365205 11.1284 0.224553C11.269 0.0839003 11.4598 0.00488281 11.6587 0.00488281C11.8576 0.00488281 12.0484 0.0839003 12.1891 0.224553C12.3297 0.365205 12.4087 0.55597 12.4087 0.754883V12.7549L16.1847 8.42288C16.3161 8.27365 16.5013 8.18265 16.6996 8.1699C16.898 8.15715 17.0934 8.22369 17.2427 8.35488Z" fill="#43686A"/>
<path fill-rule="evenodd" clip-rule="evenodd" d="M0.256744 7.15479C0.106933 7.02401 0.0151896 6.8391 0.001688 6.6407C-0.0118136 6.44229 0.0540304 6.24665 0.184744 6.09679L5.27574 0.256788C5.37641 0.141469 5.50995 0.0597133 5.65843 0.0225001C5.80691 -0.014713 5.96323 -0.00560132 6.10638 0.0486117C6.24953 0.102825 6.37267 0.199543 6.45925 0.325777C6.54584 0.452011 6.59172 0.601717 6.59074 0.754789L6.59074 14.7548C6.59074 14.9537 6.51173 15.1445 6.37107 15.2851C6.23042 15.4258 6.03966 15.5048 5.84074 15.5048C5.64183 15.5048 5.45107 15.4258 5.31041 15.2851C5.16976 15.1445 5.09074 14.9537 5.09074 14.7548L5.09074 2.75479L1.31474 7.08579C1.18397 7.2356 0.999053 7.32734 0.800652 7.34085C0.60225 7.35435 0.406609 7.2885 0.256744 7.15779V7.15479Z" fill="#43686A"/>
</svg>
