<svg width="24" height="24" viewBox="0 0 24 24" fill="none" xmlns="http://www.w3.org/2000/svg">
<path d="M19.3846 0H4.61538C2.06638 0 0 2.06638 0 4.61538V19.3846C0 21.9336 2.06638 24 4.61538 24H19.3846C21.9336 24 24 21.9336 24 19.3846V4.61538C24 2.06638 21.9336 0 19.3846 0Z" fill="white"/>
<g clip-path="url(#clip0_86_209)">
<path fill-rule="evenodd" clip-rule="evenodd" d="M6.88058 10.6691C6.39319 10.3774 6.43013 9.99714 6.14213 9.74606C5.69906 9.49053 5.23601 9.27133 4.75751 9.09065C4.20366 8.96973 3.94612 9.22544 4.04858 8.61897C4.10489 8.33374 3.89628 8.24971 3.75505 8.0651C3.46982 7.69586 4.24334 7.7088 4.44088 7.7088C4.56343 7.7129 4.68391 7.67624 4.78337 7.60451C5.00491 7.41344 5.13411 7.3673 5.36858 7.45499C5.6935 7.57776 5.96677 8.11864 6.17446 8.14172C6.67421 8.186 7.17781 8.1521 7.66708 8.04115C7.74647 8.02084 7.81014 7.8722 7.83875 7.6719C7.88823 7.35413 7.87001 7.02952 7.78523 6.7193C7.63385 6.42668 6.95444 5.95864 7.65137 5.92079C8.05752 5.93187 8.41108 6.46267 8.87169 6.61405C9.744 6.84205 9.71258 5.95129 10.3421 5.79898C10.6886 5.71843 11.0251 5.59987 11.3455 5.44545C11.8237 5.15006 11.4184 4.86851 11.5513 4.51589C11.7028 4.18276 11.98 3.92316 12.3223 3.79378C12.6646 3.6644 13.0442 3.67577 13.3781 3.82544C13.5129 3.87604 13.6258 3.97201 13.6975 4.09683C13.751 4.21314 13.7575 4.34788 13.8148 4.46603C14.0049 4.79834 14.4923 4.82142 14.7286 5.07619C14.8347 5.19712 14.8551 5.36051 14.9825 5.47497C15.1434 5.58037 15.3214 5.6569 15.5086 5.70112C16.0865 6.01681 15.9332 6.39988 16.7345 6.48019C17.8782 6.54019 17.6197 6.67682 18.36 7.03959C18.5935 7.11273 18.8372 7.14764 19.0818 7.14298C19.2448 7.14478 19.407 7.16491 19.5655 7.20298C19.5929 7.38272 19.5696 7.56656 19.4981 7.73376C19.1123 8.58945 19.5083 9.60297 18.9055 9.87897C18.6905 9.97127 18.4292 10.0488 18.3748 10.2953C18.3705 10.5473 18.2739 10.789 18.1034 10.9747C18.0105 11.1863 17.9064 11.3927 17.7914 11.5931C17.6547 11.786 17.1397 12.0463 17.1637 12.3694C17.1581 12.6307 17.4655 12.35 17.6751 12.2347C18.1523 11.9356 18.7652 12.4765 18.5981 12.8014C18.5197 12.9861 18.3101 13.1494 18.2843 13.382C18.2344 13.7642 18.7366 14.043 18.5732 14.3263C18.5206 14.4094 18.4274 14.4879 18.4108 14.5885C18.5464 15.2411 18.8418 15.0796 18.6877 15.8734C18.5751 16.5464 19.848 16.335 19.4141 16.8667C19.1686 17.2165 18.8003 17.4205 18.5363 17.75C18.3897 18.0012 18.1628 18.1956 17.8921 18.3018C17.6214 18.408 17.3228 18.4198 17.0446 18.3353C16.2932 18.1331 16.5406 17.8968 16.476 17.7399C16.4427 17.6651 16.3929 17.6947 16.2914 17.7095C15.3821 17.9864 15.7311 17.7464 15.1754 17.691C14.3261 17.9679 13.368 18.2522 13.3052 18.6953C13.2249 19.0858 13.7058 19.3987 13.3357 19.6627C12.5972 20.0873 12.5261 19.6895 11.9778 19.503C11.8071 19.4531 11.628 19.4633 11.46 19.4106C11.0815 19.2805 10.7704 18.7802 10.2978 18.903C9.95075 19.0257 9.65169 19.5907 9.09784 19.3091C8.99568 19.2241 8.90003 19.1315 8.81169 19.0322C8.43323 18.7221 7.76119 18.8153 7.5295 18.6916C7.42252 18.6394 7.32909 18.5632 7.25653 18.4689C7.18398 18.3745 7.13428 18.2647 7.11135 18.1479C6.87781 17.594 7.31445 17.2396 7.6126 16.814C8.18491 16.1448 7.79722 15.494 7.84337 14.7085C7.8531 14.5435 7.90699 14.3841 7.99938 14.247C8.10971 14.103 8.16651 13.9252 8.16 13.7439C8.12954 13.5224 8.11844 13.2509 8.0769 12.9879C7.96798 11.7796 6.54181 11.8673 6.88058 10.6691Z" fill="#05A1AB"/>
</g>
<defs>
<clipPath id="clip0_86_209">
<rect width="15.8889" height="16.152" fill="white" transform="translate(3.69226 3.69238)"/>
</clipPath>
</defs>
</svg>
