<svg width="24" height="24" viewBox="0 0 24 24" fill="none" xmlns="http://www.w3.org/2000/svg">
<g clip-path="url(#clip0_86_986)">
<path fill-rule="evenodd" clip-rule="evenodd" d="M5.41456 10.5026C4.73972 10.1053 4.79086 9.58727 4.39209 9.24529C3.77862 8.89724 3.13747 8.59868 2.47494 8.35259C1.70808 8.18789 1.35148 8.53617 1.49335 7.71014C1.57131 7.32163 1.28247 7.20718 1.08692 6.95572C0.691986 6.4528 1.76301 6.47042 2.03653 6.47042C2.20622 6.47601 2.37303 6.42607 2.51075 6.32838C2.81749 6.06812 2.99639 6.00527 3.32103 6.12471C3.77092 6.29193 4.1493 7.02865 4.43687 7.06008C5.12882 7.1204 5.82611 7.07423 6.50357 6.9231C6.61349 6.89544 6.70164 6.69299 6.74127 6.42016C6.80978 5.98735 6.78454 5.5452 6.66716 5.12266C6.45755 4.7241 5.51684 4.08659 6.48181 4.03504C7.04417 4.05013 7.53371 4.77312 8.17149 4.97931C9.3793 5.28986 9.33578 4.07659 10.2075 3.86913C10.6872 3.75942 11.1531 3.59793 11.5968 3.3876C12.2589 2.98527 11.6977 2.60177 11.8818 2.12149C12.0915 1.66775 12.4753 1.31415 12.9492 1.13793C13.4232 0.961703 13.9488 0.977197 14.4111 1.18106C14.5977 1.24997 14.7541 1.38068 14.8534 1.55071C14.9275 1.70912 14.9365 1.89264 15.0157 2.05357C15.279 2.5062 15.9538 2.53764 16.281 2.88465C16.428 3.04936 16.4562 3.27191 16.6325 3.42781C16.8553 3.57138 17.1019 3.67561 17.3611 3.73584C18.1611 4.16583 17.949 4.6876 19.0584 4.79698C20.642 4.87871 20.2841 5.06481 21.3091 5.55892C21.6324 5.65854 21.9699 5.70609 22.3086 5.69974C22.5342 5.70219 22.7588 5.72961 22.9783 5.78146C23.0162 6.02629 22.9839 6.27668 22.885 6.50442C22.3507 7.66992 22.8991 9.05039 22.0645 9.42632C21.7667 9.55205 21.405 9.65765 21.3295 9.99334C21.3236 10.3366 21.1899 10.6659 20.9538 10.9187C20.8253 11.207 20.681 11.4881 20.5218 11.7611C20.3326 12.0239 19.6194 12.3784 19.6527 12.8185C19.645 13.1743 20.0706 12.7921 20.3607 12.6349C21.0215 12.2276 21.8702 12.9643 21.6389 13.4069C21.5302 13.6584 21.24 13.8809 21.2043 14.1977C21.1352 14.7182 21.8305 15.0979 21.6043 15.4839C21.5314 15.5971 21.4024 15.7039 21.3794 15.841C21.5673 16.7299 21.9763 16.5099 21.7628 17.5912C21.6069 18.5077 23.3694 18.2198 22.7687 18.944C22.4287 19.4205 21.9187 19.6983 21.5532 20.1472C21.3503 20.4892 21.036 20.754 20.6612 20.8987C20.2864 21.0433 19.8731 21.0594 19.4878 20.9443C18.4474 20.669 18.7899 20.3471 18.7005 20.1334C18.6545 20.0315 18.5854 20.0718 18.4448 20.0919C17.1859 20.4691 17.6691 20.1422 16.8996 20.0668C15.7238 20.4439 14.3971 20.8312 14.3102 21.4347C14.199 21.9665 14.8649 22.3927 14.3524 22.7523C13.3299 23.3307 13.2315 22.7888 12.4723 22.5348C12.2358 22.4669 11.9878 22.4807 11.7552 22.409C11.2312 22.2318 10.8005 21.5503 10.1461 21.7176C9.66557 21.8848 9.25148 22.6542 8.48462 22.2708C8.34316 22.1549 8.21072 22.0289 8.08841 21.8936C7.56439 21.4711 6.63388 21.5981 6.31307 21.4296C6.16495 21.3586 6.03558 21.2548 5.93512 21.1263C5.83466 20.9978 5.76584 20.8482 5.73409 20.6891C5.41073 19.9347 6.01531 19.4519 6.42814 18.8723C7.22056 17.9608 6.68376 17.0744 6.74766 16.0044C6.76113 15.7796 6.83574 15.5625 6.96367 15.3758C7.11644 15.1797 7.19508 14.9375 7.18607 14.6906C7.1439 14.3888 7.12853 14.0192 7.07101 13.6608C6.92019 12.015 4.9455 12.1345 5.41456 10.5026Z" fill="white"/>
</g>
<defs>
<clipPath id="clip0_86_986">
<rect width="22" height="22" fill="white" transform="translate(1 1)"/>
</clipPath>
</defs>
</svg>
