<svg width="18" height="18" viewBox="0 0 18 18" fill="none" xmlns="http://www.w3.org/2000/svg">
<path d="M8.72446 8.03291C10.9427 8.03291 12.7409 6.23468 12.7409 4.01645C12.7409 1.79823 10.9427 0 8.72446 0C6.50624 0 4.70801 1.79823 4.70801 4.01645C4.70801 6.23468 6.50624 8.03291 8.72446 8.03291Z" fill="#05A1AB"/>
<path d="M8.72463 8.97803C6.8448 8.97803 5.04196 9.72478 3.71272 11.054C2.38348 12.3833 1.63672 14.1861 1.63672 16.0659C1.63672 16.5672 1.83584 17.0479 2.19029 17.4024C2.54473 17.7568 3.02546 17.9559 3.52672 17.9559H13.9217C14.1699 17.9559 14.4157 17.907 14.645 17.8121C14.8743 17.7171 15.0826 17.5779 15.2582 17.4024C15.4337 17.2269 15.5729 17.0185 15.6678 16.7892C15.7628 16.5599 15.8117 16.3141 15.8117 16.0659C15.8117 14.1862 15.0651 12.3835 13.736 11.0543C12.4069 9.7251 10.6043 8.97824 8.72463 8.97803Z" fill="#05A1AB"/>
</svg>
